<svg width="511" height="517" viewBox="0 0 511 517" fill="none" xmlns="http://www.w3.org/2000/svg">
<path d="M511 265.4C511 259.99 508.851 254.801 505.025 250.975C501.199 247.149 496.01 245 490.6 245H479.815L425.415 299.4H511V265.4Z" fill="#F5F5F5"/>
<path d="M289.416 245L235.016 299.4H317.785L372.185 245H289.416Z" fill="#F5F5F5"/>
<path d="M215.785 299.4L270.185 245H191.4C185.99 245 180.801 247.149 176.975 250.975C173.149 254.801 171 259.99 171 265.4V299.4H215.785Z" fill="#F5F5F5"/>
<path d="M391.416 245L337.016 299.4H406.185L460.585 245H391.416Z" fill="#F5F5F5"/>
<path d="M171 313V496.6C171 502.01 173.149 507.199 176.975 511.025C180.801 514.851 185.99 517 191.4 517H490.6C496.01 517 501.199 514.851 505.025 511.025C508.851 507.199 511 502.01 511 496.6V313H171ZM239 374.2H443C444.803 374.2 446.533 374.916 447.808 376.192C449.084 377.467 449.8 379.197 449.8 381C449.8 382.803 449.084 384.533 447.808 385.808C446.533 387.084 444.803 387.8 443 387.8H239C237.197 387.8 235.467 387.084 234.192 385.808C232.916 384.533 232.2 382.803 232.2 381C232.2 379.197 232.916 377.467 234.192 376.192C235.467 374.916 237.197 374.2 239 374.2ZM239 415H443C444.803 415 446.533 415.716 447.808 416.992C449.084 418.267 449.8 419.997 449.8 421.8C449.8 423.603 449.084 425.333 447.808 426.608C446.533 427.884 444.803 428.6 443 428.6H239C237.197 428.6 235.467 427.884 234.192 426.608C232.916 425.333 232.2 423.603 232.2 421.8C232.2 419.997 232.916 418.267 234.192 416.992C235.467 415.716 237.197 415 239 415ZM477 489.8H205C203.197 489.8 201.467 489.084 200.192 487.808C198.916 486.533 198.2 484.803 198.2 483C198.2 481.197 198.916 479.467 200.192 478.192C201.467 476.916 203.197 476.2 205 476.2H477C478.803 476.2 480.533 476.916 481.808 478.192C483.084 479.467 483.8 481.197 483.8 483C483.8 484.803 483.084 486.533 481.808 487.808C480.533 489.084 478.803 489.8 477 489.8Z" fill="#F5F5F5"/>
<g clip-path="url(#clip0)">
<path d="M256.602 42.1554H162.956C169.176 27.2283 181.247 15.5101 196.349 9.73351C197.324 9.31581 198.37 8.96611 199.341 8.61965C207.171 6.09403 215.648 6.48906 223.205 9.73351C238.31 15.5101 250.381 27.2283 256.602 42.1554Z" fill="#FFF3F2"/>
<path d="M235.73 42.1551H162.956C169.176 27.228 181.247 15.5098 196.349 9.73325C197.324 9.31555 198.37 8.96585 199.341 8.61938C200.316 8.96585 201.358 9.31555 202.333 9.73325C217.438 15.5098 229.509 27.228 235.73 42.1551Z" fill="#F5F5F5"/>
<path d="M410.92 338.197C412.102 349.676 403.337 358.93 394.847 365.331C386.38 371.373 377.281 376.483 367.713 380.569C321.928 400.836 272.374 411.197 222.302 410.974C220.006 410.974 217.71 410.974 215.414 411.042C213.536 411.042 211.658 411.042 209.777 410.974H209.291C207.413 411.042 205.535 411.042 203.657 411.042C202.126 410.974 200.666 410.974 199.134 410.974H196.767C146.695 411.197 97.1442 400.836 51.356 380.569C41.7586 376.499 32.6373 371.389 24.1538 365.331C15.735 358.93 6.96659 349.676 8.08045 338.197C8.9029 333.852 11.1565 329.908 14.4819 326.997L22.8294 320.038H396.239L404.59 326.997C407.721 330.892 410.435 333.117 410.92 338.197Z" fill="#FFF3F2"/>
<path d="M390.048 338.197C391.23 349.676 382.465 358.93 373.975 365.331C365.508 371.373 356.409 376.483 346.841 380.569C301.056 400.836 251.502 411.197 201.43 410.974H196.767C146.695 411.197 97.1442 400.836 51.356 380.569C41.7586 376.499 32.6373 371.389 24.1538 365.331C15.735 358.93 6.96659 349.676 8.08045 338.197C8.9029 333.852 11.1565 329.908 14.4819 326.997L22.8294 320.038H375.367L383.715 326.997C386.846 330.892 389.559 333.117 390.048 338.197Z" fill="#FFF3F2"/>
<path d="M396.239 320.038C396.239 320.038 395.264 321.013 393.318 322.752C392.133 323.726 390.605 325.047 388.727 326.508C387.752 327.272 386.706 328.107 385.596 328.943C384.456 329.937 383.248 330.843 381.976 331.656L379.89 333.116C370.015 340.117 359.592 346.308 348.718 351.625C339.934 355.951 330.786 359.49 321.377 362.2C285.445 371.797 248.354 376.34 211.169 375.699H207.899C147.022 375.281 101.172 366.931 70.3496 351.625C59.4765 346.308 49.0535 340.117 39.1809 333.116L37.0924 331.656C35.8231 330.843 34.6121 329.937 33.4756 328.943C32.3617 328.107 31.3191 327.272 30.3444 326.508C28.4664 325.047 26.9349 323.726 25.753 322.752C23.8037 321.013 22.8291 320.038 22.8291 320.038L41.1981 304.732L49.5456 297.774L369.801 297.981L396.239 320.038Z" fill="#FFF3F2"/>
<path d="M376.759 326.997C376.759 326.997 375.785 327.968 373.835 329.71C372.654 330.682 371.122 332.006 369.244 333.466C368.269 334.23 367.227 335.066 366.113 335.901C364.976 336.892 363.765 337.799 362.496 338.615L360.407 340.075C350.535 347.075 340.112 353.263 329.239 358.583C326.733 359.833 324.09 361.018 321.377 362.2C285.445 371.797 248.354 376.34 211.169 375.699H207.899C147.022 375.281 101.172 366.931 70.3496 351.625C59.4765 346.308 49.0535 340.117 39.1809 333.117L37.0924 331.656C35.8231 330.843 34.6121 329.937 33.4756 328.943C32.3617 328.107 31.3191 327.272 30.3444 326.508C28.4664 325.047 26.9349 323.726 25.753 322.752C23.8037 321.013 22.8291 320.038 22.8291 320.038L41.1981 304.732L350.321 304.94L376.759 326.997Z" fill="#FFF3F2"/>
<path d="M362.843 254.498C362.843 260.689 362.704 266.884 362.286 272.935L361.939 274.674C360.061 274.328 358.112 288.312 356.095 288.798C304.847 301.565 252.149 307.575 199.341 306.678C153.521 305.862 107.936 299.862 63.4628 288.798C61.4455 288.312 59.4963 274.328 57.6182 274.674L57.2685 272.935C56.8541 266.884 56.7148 260.689 56.7148 254.498C56.7148 149.928 90.7363 66.5759 162.956 42.1551C174.716 38.2047 186.956 35.841 199.341 35.1287C202.751 34.9182 206.232 34.779 209.777 34.779C225.685 34.6462 241.506 37.1362 256.602 42.1551C328.821 66.5759 362.843 149.928 362.843 254.498Z" fill="#FFF3F2"/>
<path d="M341.971 254.498C341.971 260.689 341.832 266.884 341.414 272.935L341.067 274.674C339.189 274.328 337.24 288.312 335.223 288.798C290.749 299.862 245.165 305.862 199.341 306.678C153.521 305.862 107.936 299.862 63.4628 288.798C61.4455 288.312 59.4963 274.328 57.6182 274.674L57.2685 272.935C56.8541 266.884 56.7148 260.689 56.7148 254.498C56.7148 149.928 90.7363 66.5759 162.956 42.1551C174.716 38.2047 186.956 35.841 199.341 35.1287C211.73 35.841 223.966 38.2047 235.73 42.1551C307.949 66.5759 341.971 149.928 341.971 254.498Z" fill="#FFF3F2"/>
<path d="M372.097 294.989C372.003 295.09 371.932 295.209 371.89 295.339C371.317 296.31 370.614 297.201 369.801 297.981C368.934 298.855 367.949 299.603 366.881 300.209C365.628 300.983 364.268 301.569 362.843 301.948C309.633 315.175 254.931 321.444 200.109 320.595H198.577C150.736 319.766 103.144 313.511 56.7152 301.948C55.2905 301.569 53.9305 300.983 52.6774 300.209C51.5053 299.578 50.4464 298.755 49.5463 297.774C48.7174 296.955 48.0115 296.019 47.461 294.989C45.6186 291.916 45.1135 288.219 46.0687 284.764C46.9559 281.574 48.9861 278.825 51.774 277.041C52.0816 276.808 52.4087 276.598 52.7486 276.413C53.9694 275.672 55.3099 275.153 56.7152 274.885C56.9904 274.813 57.3401 274.745 57.6186 274.674C59.5581 274.328 61.5527 274.399 63.4631 274.885C107.937 285.949 153.521 291.946 199.342 292.765C249.038 293.613 298.647 288.332 347.051 277.041C350.111 276.345 353.103 275.649 356.095 274.885C358.006 274.399 360 274.328 361.94 274.674C362.218 274.745 362.565 274.813 362.843 274.885C367.946 275.953 372.042 279.755 373.49 284.764C374.445 288.219 373.94 291.916 372.097 294.989Z" fill="#D51F48" fill-opacity="0.3"/>
<path d="M351.225 294.989C351.131 295.09 351.06 295.209 351.015 295.339C350.442 296.31 349.742 297.201 348.93 297.981C348.062 298.855 347.077 299.603 346.006 300.209C344.753 300.983 343.396 301.569 341.971 301.948C295.542 313.511 247.95 319.766 200.109 320.595H198.577C150.736 319.766 103.144 313.511 56.7152 301.948C55.2905 301.569 53.9305 300.983 52.6774 300.209C51.5053 299.578 50.4464 298.755 49.5463 297.774C48.7174 296.955 48.0115 296.019 47.461 294.989C45.6186 291.916 45.1135 288.219 46.0687 284.764C46.9559 281.574 48.9861 278.825 51.774 277.041C100.13 288.332 149.694 293.613 199.342 292.765C245.165 291.946 290.75 285.949 335.223 274.885C337.134 274.399 339.125 274.328 341.068 274.674C341.346 274.745 341.693 274.813 341.971 274.885C343.784 275.28 345.507 276.012 347.051 277.041C349.765 278.871 351.74 281.61 352.618 284.764C353.57 288.219 353.068 291.916 351.225 294.989Z" fill="#F3AEBE"/>
<path d="M303.704 180.19C303.218 180.679 302.729 181.097 302.172 181.582C287.397 195.684 279.264 215.364 279.772 235.783C279.772 236.479 279.84 237.175 279.84 237.868C279.963 239.83 279.244 241.751 277.862 243.146C276.479 244.542 274.565 245.28 272.603 245.176C271.907 245.105 271.214 245.105 270.447 245.037C250.044 244.574 230.393 252.73 216.317 267.509C215.819 267.985 215.352 268.496 214.925 269.04C213.614 270.5 211.742 271.336 209.777 271.336C207.814 271.336 205.943 270.5 204.628 269.04C204.204 268.496 203.738 267.985 203.239 267.509C201.986 266.188 200.665 264.934 199.341 263.681C185.579 251.303 167.615 244.636 149.11 245.037C148.343 245.105 147.646 245.105 146.95 245.176C144.991 245.28 143.078 244.542 141.695 243.146C140.312 241.751 139.594 239.83 139.717 237.868C139.717 237.175 139.785 236.479 139.785 235.783C140.293 215.364 132.159 195.684 117.381 181.582C116.824 181.097 116.338 180.679 115.853 180.19C114.36 178.911 113.502 177.043 113.502 175.077C113.502 173.112 114.36 171.244 115.853 169.965C116.338 169.476 116.824 168.99 117.381 168.504C132.166 154.438 140.306 134.774 139.785 114.375C139.785 113.679 139.717 112.983 139.717 112.287C139.594 110.328 140.312 108.407 141.695 107.012C143.078 105.616 144.991 104.878 146.95 104.982C147.646 105.05 148.343 105.05 149.11 105.121C163.742 105.412 178.268 102.54 191.689 96.7021H227.867C241.289 102.54 255.814 105.412 270.447 105.121C271.214 105.05 271.907 105.05 272.603 104.982C274.565 104.878 276.479 105.616 277.862 107.012C279.244 108.407 279.963 110.328 279.84 112.287C279.84 112.983 279.772 113.679 279.772 114.375C279.251 134.774 287.388 154.438 302.172 168.504C302.729 168.99 303.218 169.476 303.704 169.965C305.193 171.244 306.051 173.112 306.051 175.077C306.051 177.043 305.193 178.911 303.704 180.19Z" fill="#FFF3F2"/>
<path d="M282.832 180.19C282.346 180.679 281.857 181.097 281.3 181.582C266.525 195.684 258.392 215.364 258.897 235.783C258.897 236.479 258.968 237.175 258.968 237.868C259.091 239.83 258.369 241.751 256.99 243.146C255.607 244.542 253.693 245.28 251.731 245.176C251.035 245.105 250.339 245.105 249.575 245.037C231.07 244.636 213.105 251.303 199.341 263.681C185.579 251.303 167.615 244.636 149.11 245.037C148.343 245.105 147.646 245.105 146.95 245.176C144.991 245.28 143.078 244.542 141.695 243.146C140.312 241.751 139.594 239.83 139.717 237.868C139.717 237.175 139.785 236.479 139.785 235.783C140.293 215.364 132.159 195.684 117.381 181.582C116.824 181.097 116.338 180.679 115.853 180.19C114.36 178.911 113.502 177.043 113.502 175.077C113.502 173.112 114.36 171.244 115.853 169.965C116.338 169.476 116.824 168.99 117.381 168.504C132.166 154.438 140.306 134.774 139.785 114.375C139.785 113.679 139.717 112.983 139.717 112.287C139.594 110.328 140.312 108.407 141.695 107.012C143.078 105.616 144.991 104.878 146.95 104.982C147.646 105.05 148.343 105.05 149.11 105.121C163.742 105.412 178.268 102.54 191.689 96.7021H206.995C220.417 102.54 234.942 105.412 249.575 105.121C250.339 105.05 251.035 105.05 251.731 104.982C253.693 104.878 255.607 105.616 256.99 107.012C258.369 108.407 259.091 110.328 258.968 112.287C258.968 112.983 258.897 113.679 258.897 114.375C258.379 134.774 266.516 154.438 281.3 168.504C281.857 168.99 282.346 169.476 282.832 169.965C284.321 171.244 285.179 173.112 285.179 175.077C285.179 177.043 284.321 178.911 282.832 180.19Z" fill="#F5F5F5"/>
<path d="M265.437 173.931C265.399 204.653 240.502 229.55 209.777 229.589C206.276 229.582 202.783 229.258 199.341 228.617C173.097 223.598 154.119 200.648 154.119 173.931C154.119 147.211 173.097 124.261 199.341 119.245C202.783 118.604 206.276 118.277 209.777 118.27C240.502 118.309 265.399 143.206 265.437 173.931Z" fill="#D51F48" fill-opacity="0.3"/>
<path d="M244.566 173.931C244.566 143.727 224.318 119.245 199.341 119.245C174.366 119.245 154.119 143.727 154.119 173.931C154.119 204.132 174.366 228.617 199.341 228.617C224.318 228.617 244.566 204.132 244.566 173.931Z" fill="#F3AEBE"/>
<path d="M237.608 173.931C237.608 189.298 225.148 201.761 209.777 201.761C194.41 201.761 181.95 189.298 181.95 173.931C181.95 158.56 194.41 146.101 209.777 146.101C225.148 146.101 237.608 158.56 237.608 173.931Z" fill="#FFF3F2"/>
<path d="M209.777 62.6095C252.706 50.344 236.176 86.7259 231.653 95.5267C231.057 96.6827 229.862 97.408 228.564 97.3983H190.994C189.695 97.408 188.5 96.6827 187.905 95.5267C183.381 86.7259 166.851 50.344 209.777 62.6095Z" fill="#FFF3F2"/>
<path d="M220.006 410.974H217.639C167.57 411.197 118.016 400.835 72.228 380.569C62.6306 376.499 53.5092 371.389 45.0258 365.331C36.607 358.93 27.8386 349.675 28.9524 338.197C29.7749 333.851 32.0285 329.908 35.3539 326.997L43.7014 320.038L62.0705 304.732L70.4212 297.774C69.589 296.955 68.8864 296.019 68.3327 294.989C66.4903 291.916 65.9852 288.219 66.9404 284.764C67.8276 281.574 69.8578 278.825 72.6457 277.041C72.9533 276.808 73.2803 276.598 73.6203 276.413C74.841 275.672 76.1848 275.153 77.5868 274.885C77.8653 274.813 78.2118 274.745 78.4902 274.674L78.1438 272.935C77.7261 266.884 77.5868 260.689 77.5868 254.498C77.5868 149.928 111.608 66.576 183.828 42.1552C190.048 27.2281 202.119 15.5098 217.225 9.7333C218.131 9.3415 219.096 9.02094 220.012 8.69391C213.297 6.51799 206.073 6.49208 199.341 8.61943C198.37 8.9659 197.324 9.3156 196.349 9.7333C181.247 15.5098 169.176 27.2281 162.956 42.1552C90.7363 66.576 56.7148 149.928 56.7148 254.498C56.7148 260.689 56.8541 266.884 57.2685 272.935L57.6182 274.674C57.3398 274.745 56.9901 274.813 56.7148 274.885C55.3096 275.153 53.969 275.672 52.7483 276.413C52.4083 276.598 52.0813 276.808 51.7737 277.041C48.9858 278.825 46.9556 281.574 46.0684 284.764C45.1132 288.219 45.6183 291.916 47.4607 294.989C48.0112 296.019 48.717 296.955 49.546 297.774L41.1985 304.732L22.8294 320.038L14.4819 326.997C11.1565 329.908 8.9029 333.851 8.08045 338.197C6.96659 349.675 15.735 358.93 24.1538 365.331C32.6373 371.389 41.7586 376.499 51.356 380.569C97.1442 400.835 146.695 411.197 196.767 410.974H199.134C200.666 410.974 202.126 410.974 203.657 411.042C205.535 411.042 207.413 411.042 209.291 410.974H209.777C211.658 411.042 213.536 411.042 215.415 411.042C217.247 410.987 219.083 410.99 220.916 410.987C220.611 410.987 220.314 410.974 220.006 410.974Z" fill="white"/>
<path d="M49.7561 254.479C49.4679 223.738 52.8743 193.074 59.9007 163.146C64.1586 145.586 70.246 128.519 78.0593 112.225C86.1639 95.7794 96.7877 80.7002 109.539 67.5281C122.808 54.56 138.499 44.3312 155.719 37.4246C173.071 31.2045 191.346 27.96 209.777 27.8208V41.7376C193.056 41.8736 176.471 44.804 160.715 50.4089C145.302 56.6194 131.253 65.7861 119.36 77.3877C107.684 89.4848 97.9566 103.324 90.5255 118.403C83.1656 133.78 77.4311 149.88 73.416 166.448C66.6551 195.295 63.3848 224.852 63.6697 254.479H49.7561Z" fill="white"/>
<path d="M58.1885 219.735C56.3332 219.606 54.5037 220.218 53.1017 221.435C51.6964 222.656 50.8383 224.385 50.7088 226.24C49.9705 235.643 50.0968 245.066 49.7568 254.479H63.6704C64.0136 245.357 63.8809 236.194 64.5965 227.102C64.8361 223.307 61.9802 220.024 58.1885 219.735Z" fill="#D51F48"/>
<path d="M209.777 41.7374V27.8206C191.347 27.9598 173.071 31.2042 155.719 37.4244C138.5 44.331 122.808 54.5598 109.542 67.5278C96.788 80.6999 86.1675 95.7792 78.0628 112.225C70.2463 128.515 64.1622 145.582 59.9042 163.145C59.2178 165.428 58.7904 167.759 58.3273 170.084C57.942 171.907 58.2982 173.811 59.3182 175.372C60.3381 176.933 61.9377 178.02 63.7639 178.403C67.4811 179.154 71.1141 176.78 71.9171 173.073C72.3057 170.842 72.8076 168.63 73.4196 166.451C77.4346 149.882 83.1691 133.78 90.5258 118.403C97.9569 103.324 107.684 89.4846 119.357 77.3875C131.253 65.7858 145.299 56.6191 160.712 50.4087C176.471 44.8037 193.053 41.8734 209.777 41.7374Z" fill="#D51F48"/>
<path d="M53.4832 198.06C53.2565 199.909 53.7293 201.778 54.814 203.29L55.7368 204.251C56.0865 204.562 56.4783 204.824 56.896 205.028C57.2619 205.271 57.6634 205.459 58.0876 205.582C58.5344 205.715 58.9878 205.812 59.4476 205.88C61.2867 206.058 63.1291 205.556 64.6218 204.471C65.3342 203.902 65.93 203.202 66.3801 202.412C67.7594 200.016 67.5814 197.031 65.9267 194.813C65.3504 194.1 64.6477 193.498 63.8544 193.041C61.4648 191.549 58.4082 191.681 56.1545 193.368C54.7072 194.541 53.7552 196.218 53.4832 198.06Z" fill="#D51F48"/>
<path d="M57.2625 279.894C53.61 279.887 50.5793 277.057 50.33 273.411C49.9414 267.716 49.7568 261.7 49.7568 254.482C49.7568 250.639 52.8718 247.524 56.7152 247.524C60.5555 247.524 63.6704 250.639 63.6704 254.482C63.6704 261.376 63.8453 267.084 64.2112 272.459C64.3374 274.302 63.7287 276.115 62.5145 277.507C61.3035 278.9 59.5873 279.751 57.7449 279.874C57.5863 279.887 57.4244 279.894 57.2625 279.894Z" fill="#D51F48"/>
<path d="M362.293 279.894C362.134 279.894 361.972 279.887 361.81 279.874C359.971 279.751 358.255 278.9 357.041 277.507C355.83 276.115 355.221 274.302 355.347 272.459C355.713 267.084 355.888 261.376 355.888 254.482C355.888 121.265 301.266 41.7374 209.777 41.7374C205.937 41.7374 202.822 38.6224 202.822 34.779C202.822 30.9387 205.937 27.8206 209.777 27.8206C309.98 27.8206 369.801 112.555 369.801 254.482C369.801 261.7 369.617 267.712 369.228 273.411C368.979 277.057 365.948 279.887 362.293 279.894Z" fill="#D51F48"/>
<path d="M209.78 327.544C157.633 327.563 105.673 321.223 55.0602 308.666C52.9166 308.151 50.867 307.303 48.989 306.15C45.819 304.285 43.2027 301.617 41.4056 298.412C38.6404 293.742 37.9054 288.144 39.3754 282.918C40.8455 277.511 44.472 272.942 49.4034 270.28C51.2458 269.205 53.2534 268.447 55.3451 268.039C58.5701 267.295 61.9312 267.334 65.1367 268.162C160.132 291.69 259.435 291.69 354.43 268.162C365.576 265.41 376.918 271.906 380.185 282.911V282.918C381.655 288.206 380.888 293.869 378.061 298.574C376.216 301.731 373.596 304.366 370.449 306.225C368.6 307.348 366.589 308.171 364.488 308.673C313.878 321.226 261.925 327.563 209.78 327.544ZM59.9139 281.432C59.4088 281.428 58.9069 281.487 58.4147 281.603C57.6862 281.73 56.9835 281.979 56.3359 282.338C54.6101 283.203 53.3246 284.747 52.7871 286.603C52.3208 288.235 52.5572 289.986 53.4412 291.437C54.0791 292.593 55.0148 293.558 56.1546 294.228C56.8508 294.659 57.6117 294.973 58.4082 295.164C157.814 319.789 261.727 319.789 361.136 295.167C361.868 294.996 362.571 294.714 363.218 294.332C364.3 293.736 365.213 292.875 365.864 291.826C366.91 290.297 367.237 288.387 366.761 286.596C366.013 284.064 363.921 282.16 361.334 281.649C360.171 281.357 358.954 281.36 357.795 281.658C260.587 305.739 158.977 305.739 61.7693 281.658C61.1605 281.509 60.5388 281.432 59.9139 281.432Z" fill="#D51F48"/>
<path d="M209.777 382.654C205.937 382.654 202.822 379.539 202.822 375.699C202.822 371.856 205.937 368.741 209.777 368.741H211.17C269.994 368.336 315.248 360.481 345.627 345.395C356.16 340.24 366.262 334.247 375.831 327.466L377.977 325.964C379.033 325.294 380.04 324.549 380.982 323.73C382.235 322.765 383.006 322.159 383.734 321.583L384.431 321.032C384.816 320.738 385.179 320.446 385.528 320.168L365.343 303.33C362.39 300.869 361.995 296.482 364.456 293.529C366.916 290.579 371.304 290.181 374.257 292.642L400.695 314.699C402.191 315.952 403.091 317.772 403.182 319.721C403.272 321.67 402.541 323.568 401.168 324.954C401.168 324.954 400.096 326.032 397.946 327.945L396.68 329.011C395.64 329.879 394.41 330.905 392.998 332.006L392.351 332.517C391.528 333.162 390.667 333.839 389.76 334.522C388.501 335.613 387.163 336.61 385.755 337.504L383.887 338.819C373.716 346.01 362.989 352.379 351.805 357.864C319.525 373.892 272.222 382.237 211.218 382.654H209.777Z" fill="#D51F48"/>
<path d="M256.601 49.1168C253.658 49.1135 251.032 47.2582 250.044 44.4865C244.465 31.3759 233.761 21.1212 220.423 16.1089C213.607 13.185 205.891 13.1914 199.082 16.1283C185.764 21.1439 175.082 31.3921 169.509 44.4865C168.224 48.1065 164.244 49.9975 160.624 48.712C157.001 47.4233 155.11 43.4438 156.399 39.8238C163.221 23.0576 176.675 9.85956 193.568 3.35447C203.893 -1.1107 215.608 -1.12041 225.941 3.33504C242.853 9.83689 256.326 23.0446 263.158 39.8238C263.913 41.9544 263.589 44.3213 262.284 46.167C260.982 48.0126 258.861 49.1135 256.601 49.1168Z" fill="#D51F48"/>
<path d="M214.599 418C212.818 418 211.17 417.984 209.515 417.925C205.675 417.776 202.68 414.545 202.825 410.705C202.861 408.849 203.651 407.088 205.014 405.828C206.374 404.566 208.191 403.911 210.043 404.015C211.833 404.086 213.637 404.038 215.415 404.086C217.568 404.015 219.938 404.015 222.302 404.015C271.357 404.251 319.911 394.113 364.773 374.268C373.897 370.389 382.575 365.541 390.667 359.807C400.183 352.58 404.671 345.54 404.007 338.893C403.81 336.918 403.146 336.063 400.886 333.408L399.662 331.947L391.787 325.381C388.928 322.897 388.582 318.584 391.004 315.677C393.429 312.766 397.735 312.329 400.692 314.692L409.042 321.651C409.392 321.942 409.709 322.263 409.998 322.616L411.471 324.377C415.016 327.906 417.264 332.534 417.85 337.504C419.035 349.297 412.717 360.532 399.079 370.887C390.204 377.221 380.671 382.583 370.65 386.876C323.978 407.567 273.455 418.149 222.405 417.925C220.077 417.932 217.853 417.925 215.632 418H214.599Z" fill="#D51F48"/>
<path d="M209.292 382.654H207.899C146.847 382.236 99.5437 373.892 67.2546 357.854C56.0512 352.36 45.3044 345.978 35.121 338.767L33.081 337.339C31.598 336.383 30.1895 335.318 28.8652 334.152C28.4054 333.838 27.5441 333.158 26.7184 332.511L26.0514 331.986C24.6817 330.918 23.4675 329.907 22.4378 329.043L21.3401 328.133C18.9764 326.028 17.9111 324.957 17.9111 324.957C16.5317 323.574 15.7967 321.673 15.8874 319.721C15.9748 317.772 16.8782 315.945 18.3774 314.692L45.0939 292.428C48.0534 290.064 52.3599 290.501 54.7819 293.412C57.2072 296.32 56.8575 300.633 54.0016 303.116L33.5376 320.168C33.8808 320.446 34.2402 320.728 34.6126 321.016L35.3314 321.586C36.0632 322.159 36.8306 322.764 37.6401 323.367C38.6504 324.26 39.7286 325.076 40.8619 325.811L43.1576 327.411C52.7485 334.211 62.8704 340.224 73.4327 345.388C103.824 360.48 149.078 368.336 207.948 368.74H209.292C213.135 368.74 216.25 371.855 216.25 375.699C216.25 379.539 213.135 382.654 209.292 382.654Z" fill="#D51F48"/>
<path d="M203.625 418C201.18 417.929 198.894 417.945 196.738 417.929C145.649 418.159 95.0913 407.574 48.3835 386.873C38.3652 382.58 28.8391 377.221 19.9702 370.887C6.32541 360.529 0.00812256 349.297 1.19322 337.501C1.7793 332.53 4.02645 327.907 7.57203 324.374L9.04531 322.612C9.33349 322.263 9.65405 321.939 10.0005 321.648L18.3513 314.692C21.3075 312.329 25.614 312.763 28.0393 315.673C30.4613 318.581 30.1148 322.897 27.2557 325.381L18.157 333.405C15.8969 336.06 15.2363 336.915 15.0356 338.89C14.3718 345.541 18.8596 352.577 28.3793 359.804C36.4742 365.522 45.1487 370.369 54.2636 374.261C99.1614 394.12 147.75 404.258 196.845 404.015C199.102 404.031 201.475 404.018 203.845 404.09C205.416 404.09 207.206 404.09 208.997 404.022C210.849 403.918 212.665 404.572 214.025 405.832C215.389 407.094 216.179 408.853 216.217 410.708C216.36 414.548 213.368 417.78 209.528 417.929C207.559 418 205.594 418 203.625 418Z" fill="#D51F48"/>
<path d="M209.777 236.547C175.196 236.547 147.161 208.513 147.161 173.931C147.161 139.346 175.196 111.312 209.777 111.312C244.362 111.312 272.396 139.346 272.396 173.931C272.357 208.496 244.346 236.508 209.777 236.547ZM209.777 125.229C182.879 125.229 161.075 147.033 161.075 173.931C161.075 200.829 182.879 222.633 209.777 222.633C236.675 222.633 258.479 200.829 258.479 173.931C258.45 147.046 236.665 125.258 209.777 125.229Z" fill="#D51F48"/>
<path d="M209.777 208.717C190.566 208.717 174.991 193.142 174.991 173.931C174.991 154.717 190.566 139.142 209.777 139.142C228.991 139.142 244.566 154.717 244.566 173.931C244.543 193.132 228.981 208.694 209.777 208.717ZM209.777 153.056C198.25 153.056 188.905 162.404 188.905 173.931C188.905 185.458 198.25 194.803 209.777 194.803C221.307 194.803 230.652 185.458 230.652 173.931C230.639 162.407 221.301 153.069 209.777 153.056Z" fill="#D51F48"/>
<path d="M209.777 278.291C205.823 278.297 202.054 276.61 199.422 273.654C199.098 273.233 198.739 272.832 198.353 272.463C185.586 259.061 167.78 251.636 149.272 251.992L147.666 252.099C143.586 252.406 139.578 250.904 136.706 247.993C133.94 245.186 132.512 241.333 132.778 237.402L132.827 235.786C133.341 217.274 125.985 199.407 112.583 186.627C111.955 186.086 111.436 185.623 110.912 185.095C108.095 182.531 106.505 178.885 106.541 175.077C106.547 171.094 108.283 167.313 111.294 164.709C111.773 164.204 112.278 163.722 112.806 163.268C126.059 150.592 133.332 132.903 132.827 114.572L132.759 112.296C132.597 108.517 134.028 104.846 136.702 102.171C139.468 99.3215 143.334 97.8126 147.3 98.0393L149.719 98.1979C160.78 98.4343 171.715 95.8051 181.461 90.566C183.656 89.3777 186.321 89.4586 188.442 90.7765C190.563 92.0944 191.816 94.4484 191.722 96.9416C191.631 99.4381 190.207 101.692 187.995 102.851C175.985 109.22 162.538 112.396 148.948 112.082L147.715 112.011C147.213 111.988 146.727 111.959 146.238 111.911L146.698 112.999L146.74 114.381C147.297 136.697 138.37 158.204 122.167 173.562C121.529 174.128 121.157 174.504 120.784 174.876C120.966 175.365 121.28 175.796 121.691 176.117C138.172 191.604 147.281 213.373 146.737 235.983L146.675 237.868C146.73 238.218 147.229 238.189 147.718 238.156L148.492 238.108C171.009 237.486 192.736 246.429 208.288 262.723C208.76 263.195 209.285 263.739 209.777 264.338C210.272 263.733 210.813 263.173 211.364 262.622C226.76 246.439 248.283 237.525 270.615 238.085L271.839 238.153C272.341 238.176 272.827 238.205 273.316 238.253L272.853 237.165L272.814 235.783C272.276 213.457 281.197 191.941 297.374 176.544C298.187 175.828 298.481 175.576 298.769 175.288C298.507 174.689 298.106 174.164 297.601 173.75C281.249 158.321 272.234 136.659 272.817 114.184L272.882 112.286C272.83 111.95 272.338 111.982 271.839 112.001L271.065 112.05C257.323 112.429 243.714 109.259 231.556 102.844C228.191 101.025 226.925 96.8315 228.722 93.4543C230.519 90.0803 234.703 88.7851 238.09 90.5596C247.998 95.7986 259.085 98.4181 270.291 98.1656L271.888 98.0587C275.968 97.7511 279.976 99.2535 282.848 102.164C285.61 104.972 287.042 108.828 286.776 112.759L286.727 114.375C286.196 132.864 293.553 150.711 306.958 163.456C307.434 163.861 308.04 164.46 308.639 165.065C311.453 167.627 313.042 171.266 313.013 175.071C313.01 179.057 311.275 182.845 308.26 185.452C308.121 185.62 307.596 186.083 307.02 186.588C293.628 199.317 286.251 217.122 286.724 235.595L286.795 237.868C286.957 241.647 285.526 245.319 282.852 247.99C280.086 250.843 276.217 252.351 272.25 252.125L269.832 251.969C251.537 251.636 233.948 259.015 221.362 272.297C221.061 272.579 220.776 272.877 220.508 273.191C217.859 276.39 213.931 278.258 209.777 278.291Z" fill="#D51F48"/>
<path d="M228.563 104.353H190.993C187.088 104.37 183.504 102.187 181.723 98.7129C176.623 88.795 169.383 70.5684 178.158 59.8734C183.97 52.7854 194.319 51.3186 209.78 55.3952C225.225 51.3186 235.59 52.7854 241.402 59.8734C250.177 70.5684 242.937 88.795 237.837 98.7096C236.056 102.187 232.472 104.37 228.563 104.353ZM193.143 90.4398H226.41C231.724 79.4178 232.608 71.0994 230.639 68.7001C229.162 66.8998 223.311 65.9834 211.69 69.2991C210.44 69.6585 209.113 69.6585 207.863 69.2991C196.242 65.9802 190.391 66.8933 188.914 68.7001C186.946 71.0994 187.833 79.4145 193.146 90.4398H193.143Z" fill="#D51F48"/>
<path d="M209.777 83.4814C205.937 83.4814 202.822 80.3664 202.822 76.5262V55.651C202.822 51.8107 205.937 48.6958 209.777 48.6958C213.621 48.6958 216.736 51.8107 216.736 55.651V76.5262C216.736 80.3664 213.621 83.4814 209.777 83.4814Z" fill="#D51F48"/>
</g>
<defs>
<clipPath id="clip0">
<rect width="418" height="418" fill="white"/>
</clipPath>
</defs>
</svg>
