<svg width="505" height="513" viewBox="0 0 505 513" fill="none" xmlns="http://www.w3.org/2000/svg">
<path d="M473 488.453H153C148.582 488.453 145 492.105 145 496.609V504.766C145 509.27 148.582 512.922 153 512.922H473C477.418 512.922 481 509.27 481 504.766V496.609C481 492.105 477.418 488.453 473 488.453Z" fill="#F5F5F5"/>
<path d="M489 194.828C484.756 194.828 480.687 196.547 477.686 199.606C474.686 202.665 473 206.814 473 211.141C473.02 213.698 473.637 216.215 474.8 218.481L409 322.18V200.725C411.822 199.068 414.081 196.573 415.476 193.573C416.87 190.572 417.333 187.209 416.803 183.934C416.273 180.658 414.775 177.625 412.51 175.24C410.244 172.855 407.318 171.231 404.124 170.586C400.929 169.942 397.618 170.306 394.632 171.631C391.646 172.956 389.127 175.178 387.413 178.001C385.698 180.824 384.87 184.113 385.038 187.429C385.205 190.745 386.362 193.929 388.352 196.557L347.664 297.311L323.544 174.38C325.992 172.194 327.727 169.298 328.519 166.08C329.311 162.862 329.121 159.474 327.976 156.369C326.83 153.263 324.783 150.587 322.107 148.699C319.431 146.81 316.254 145.799 313 145.799C309.745 145.799 306.568 146.81 303.893 148.699C301.217 150.587 299.17 153.263 298.024 156.369C296.878 159.474 296.689 162.862 297.481 166.08C298.273 169.298 300.008 172.194 302.456 174.38L278.336 297.311L237.648 196.557C239.638 193.929 240.794 190.745 240.962 187.429C241.13 184.113 240.301 180.824 238.587 178.001C236.872 175.178 234.354 172.956 231.368 171.631C228.382 170.306 225.07 169.942 221.876 170.586C218.681 171.231 215.756 172.855 213.49 175.24C211.224 177.625 209.727 180.658 209.197 183.934C208.667 187.209 209.13 190.572 210.524 193.573C211.918 196.573 214.178 199.068 217 200.725V322.18L151.2 218.481C152.363 216.215 152.98 213.698 153 211.141C153.013 208.143 152.215 205.199 150.694 202.633C149.173 200.068 146.989 197.979 144.38 196.596C141.771 195.213 138.838 194.59 135.905 194.795C132.971 195.001 130.15 196.026 127.751 197.759C125.351 199.492 123.467 201.866 122.304 204.619C121.141 207.373 120.745 210.4 121.16 213.368C121.574 216.336 122.782 219.13 124.652 221.444C126.522 223.757 128.982 225.501 131.76 226.483L177.144 465.534C177.497 467.394 178.474 469.071 179.908 470.276C181.341 471.482 183.142 472.141 185 472.141H441C442.858 472.141 444.659 471.482 446.092 470.276C447.526 469.071 448.503 467.394 448.856 465.534L494.24 226.483C497.812 225.227 500.831 222.719 502.76 219.406C504.689 216.094 505.403 212.191 504.774 208.392C504.145 204.593 502.215 201.145 499.326 198.661C496.438 196.178 492.779 194.819 489 194.828ZM241 439.516C237.835 439.516 234.742 438.559 232.111 436.766C229.48 434.974 227.429 432.426 226.218 429.446C225.007 426.465 224.69 423.185 225.307 420.021C225.925 416.856 227.449 413.95 229.686 411.668C231.924 409.387 234.775 407.833 237.878 407.204C240.982 406.575 244.199 406.898 247.123 408.132C250.046 409.367 252.545 411.458 254.303 414.14C256.061 416.823 257 419.977 257 423.203C257 427.529 255.314 431.679 252.314 434.738C249.313 437.797 245.243 439.516 241 439.516ZM313 439.516C309.835 439.516 306.742 438.559 304.111 436.766C301.48 434.974 299.429 432.426 298.218 429.446C297.007 426.465 296.69 423.185 297.307 420.021C297.925 416.856 299.449 413.95 301.686 411.668C303.924 409.387 306.775 407.833 309.878 407.204C312.982 406.575 316.199 406.898 319.123 408.132C322.046 409.367 324.545 411.458 326.303 414.14C328.061 416.823 329 419.977 329 423.203C329 427.529 327.314 431.679 324.314 434.738C321.313 437.797 317.243 439.516 313 439.516ZM385 439.516C381.835 439.516 378.742 438.559 376.111 436.766C373.48 434.974 371.429 432.426 370.218 429.446C369.007 426.465 368.69 423.185 369.307 420.021C369.925 416.856 371.449 413.95 373.686 411.668C375.924 409.387 378.775 407.833 381.878 407.204C384.982 406.575 388.199 406.898 391.123 408.132C394.046 409.367 396.545 411.458 398.303 414.14C400.061 416.823 401 419.977 401 423.203C401 427.529 399.314 431.679 396.314 434.738C393.313 437.797 389.243 439.516 385 439.516Z" fill="#F5F5F5"/>
<path d="M241 318.25C238.878 318.25 236.843 319.109 235.343 320.639C233.843 322.168 233 324.243 233 326.406C233 332.896 230.471 339.119 225.971 343.708C221.47 348.297 215.365 350.875 209 350.875C202.635 350.875 196.53 348.297 192.029 343.708C187.529 339.119 185 332.896 185 326.406C185 324.243 184.157 322.168 182.657 320.639C181.157 319.109 179.122 318.25 177 318.25C174.878 318.25 172.843 319.109 171.343 320.639C169.843 322.168 169 324.243 169 326.406C169 337.222 173.214 347.595 180.716 355.243C188.217 362.891 198.391 367.188 209 367.188C219.609 367.188 229.783 362.891 237.284 355.243C244.786 347.595 249 337.222 249 326.406C249 324.243 248.157 322.168 246.657 320.639C245.157 319.109 243.122 318.25 241 318.25Z" fill="#D51F48"/>
<g clip-path="url(#clip0)">
<path d="M354.698 403.158C354.957 405.145 354.351 407.147 353.031 408.653C351.71 410.161 349.803 411.028 347.8 411.028H293.041C262.458 399.187 210.767 380.726 188.542 362.124C221.565 361.078 258.21 344.428 258.21 323.948C258.21 320.185 263.294 316.492 265.733 313.009C267.057 311.198 267.615 309.387 266.291 307.716C312.093 314.881 347.74 351.294 353.93 397.236L354.698 403.158Z" fill="#D51F48" fill-opacity="0.3"/>
<path d="M333.797 403.158C334.059 405.145 333.45 407.147 332.129 408.653C330.809 410.161 328.905 411.028 326.899 411.028H293.041C262.458 399.187 210.767 380.726 188.542 362.124C221.565 361.078 258.21 344.428 258.21 323.948C258.21 320.185 263.294 316.492 265.733 313.01C277.683 317.43 288.714 324.018 298.268 332.447C317.323 349.119 329.674 372.141 333.032 397.236L333.797 403.158Z" fill="#FFF3F2"/>
<path d="M272.144 323.948C272.144 344.428 235.498 368.186 202.476 369.229H202.409C198.368 365.887 194.535 362.542 190.842 359.267C187.012 355.784 183.319 352.302 179.907 348.956C177.19 346.38 174.61 343.803 172.173 341.363V341.293C168.48 337.6 165.135 333.981 162.07 330.635C160.539 328.964 159.146 327.36 157.752 325.829C156.636 324.573 155.523 323.32 154.477 322.136C153.501 321.02 152.666 319.977 151.83 319.002C151.132 318.233 150.507 317.468 149.878 316.702C149.531 316.285 147.024 313.915 146.744 313.497C146.396 313.08 158.658 307.575 158.377 307.228L158.24 307.087C158.336 307.097 158.435 307.075 158.518 307.017H158.588C165.833 305.215 172.176 300.83 176.421 294.688H242.466C246.711 300.862 253.086 305.254 260.37 307.017H260.44C262.353 307.499 264.318 307.731 266.292 307.716C269.988 312.327 272.045 318.039 272.144 323.948Z" fill="#D51F48" fill-opacity="0.3"/>
<path d="M251.243 314.891C251.243 333.493 221.077 354.738 190.842 359.267C187.012 355.784 183.319 352.302 179.907 348.956C177.19 346.38 174.61 343.803 172.173 341.363V341.293C168.48 337.6 165.135 333.981 162.07 330.635C160.539 328.964 159.146 327.36 157.752 325.829C156.636 324.573 155.523 323.32 154.477 322.136C153.501 321.02 152.666 319.977 151.83 319.002C151.132 318.233 150.507 317.468 149.878 316.702C149.531 316.285 147.024 313.915 146.744 313.497C146.396 313.08 158.658 307.575 158.377 307.228L158.24 307.087C158.336 307.097 158.435 307.075 158.518 307.017H158.588C165.833 305.215 172.176 300.83 176.421 294.688H231.388C233.881 296.222 236.611 297.329 239.469 297.96H239.539C241.452 298.442 243.42 298.675 245.391 298.659C249.087 303.27 251.144 308.982 251.243 314.891Z" fill="#FFF3F2"/>
<path d="M181.577 250.797H237.31V299.565H181.577V250.797Z" fill="#FFF3F2"/>
<path d="M259.671 61.5841L249.642 85.0619C246.089 83.5982 242.326 97.3239 239.191 98.4369C238.773 97.9521 238.356 97.4642 237.868 96.9763C229.382 90.6077 217.643 90.866 209.444 97.6013C201.244 90.866 189.506 90.6077 181.019 96.9763C180.531 97.4642 180.114 97.9521 179.696 98.4369C177.189 97.5312 174.192 88.3371 171.267 85.6902C170.569 85.0619 169.944 84.7845 169.245 85.0619L159.216 61.5841L166.879 53.1554L169.108 53.9208C183.363 58.6278 198.789 51.2101 204.009 37.1335C204.08 36.8529 204.22 36.5755 204.287 36.2948L205.055 34.0657H213.832L214.6 36.2948C218.673 48.611 230.74 56.4561 243.649 55.1773C245.738 55.0274 247.802 54.6064 249.779 53.9208L252.011 53.1554L259.671 61.5841Z" fill="#D51F48" fill-opacity="0.3"/>
<path d="M243.65 55.1774L234.245 77.1917C230.693 75.7279 226.93 89.4505 223.795 90.5667C223.377 90.0788 222.959 89.5908 222.471 89.1029C213.985 82.7375 202.246 82.9958 194.047 89.7312C187.637 84.5903 179.052 83.066 171.267 85.6906C170.569 85.0623 169.944 84.7849 169.245 85.0623L159.216 61.5843L166.879 53.1555L169.108 53.9209C183.364 58.628 198.789 51.2102 204.01 37.1335C208.321 42.4593 214.451 46.0056 221.218 47.0931C227.108 53.012 235.339 55.9779 243.65 55.1774Z" fill="#FFF3F2"/>
<path d="M310.46 126.513C313.805 122.045 314.841 116.257 313.247 110.909C311.145 102.037 302.273 96.5264 293.392 98.577C292.674 98.7779 291.976 99.0362 291.3 99.3423C290.471 99.7633 289.68 100.254 288.933 100.806C287.811 97.3364 285.875 94.1824 283.289 91.612C282.81 91.1114 282.3 90.6458 281.755 90.2184C277.006 86.0471 270.66 84.1847 264.41 85.1319C261.166 85.69 258.162 87.192 255.77 89.4499C255.675 89.2968 255.56 89.1533 255.423 89.0321C253.768 87.3706 251.803 86.044 249.641 85.1319V85.0617C246.34 83.6075 242.625 83.4098 239.19 84.5036C238.773 84.0157 238.355 83.531 237.867 83.043C236.952 82.1629 235.922 81.4102 234.802 80.8139C226.508 76.7829 216.634 77.8959 209.443 83.6681C201.244 76.9328 189.505 76.6745 181.019 83.043C180.531 83.531 180.113 84.0157 179.695 84.5036C176.261 83.4098 172.545 83.6075 169.245 85.0617V85.1319C167.083 86.044 165.118 87.3706 163.463 89.0321C163.326 89.1533 163.211 89.2968 163.115 89.4499C154.862 82.6253 142.683 83.582 135.597 91.612C133.011 94.1824 131.075 97.3364 129.952 100.806C128.629 99.7792 127.114 99.0202 125.494 98.577C116.613 96.5264 107.741 102.037 105.639 110.909C104.044 116.257 105.081 122.045 108.426 126.513C101.761 132.407 97.9534 140.883 97.9757 149.781C97.9629 163.127 106.408 175.016 119.017 179.391C120.644 186.289 125.995 191.697 132.88 193.394C133.154 197.444 134.474 201.357 136.71 204.747C139.159 208.561 142.638 211.607 146.743 213.527H272.143C280.071 209.821 285.374 202.119 286.006 193.394C292.891 191.697 298.242 186.289 299.869 179.391C312.478 175.016 320.923 163.127 320.91 149.781C320.932 140.883 317.125 132.407 310.46 126.513Z" fill="#FFF3F2"/>
<path d="M289.558 117.737C292.907 113.269 293.94 107.481 292.346 102.13C292.071 101.176 291.721 100.245 291.3 99.3424C289.418 95.1838 285.996 91.9119 281.755 90.2185C278.795 89.0704 275.543 88.9237 272.491 89.8007C270.874 90.244 269.359 90.9998 268.032 92.0299C267.232 89.5392 266.007 87.2048 264.41 85.1319C263.775 84.3315 263.102 83.5629 262.388 82.8326C254.24 74.6814 251.523 76.7734 244.277 83.598C236.684 79.4203 214.947 78.1638 209.443 83.6681C201.244 76.9328 189.505 76.6745 181.019 83.0431C180.531 83.531 180.113 84.0157 179.695 84.5037C176.261 83.4098 172.545 83.6075 169.245 85.0618V85.1319C167.083 86.044 165.118 87.3706 163.463 89.0321C163.326 89.1533 163.211 89.2968 163.115 89.4499C154.862 82.6253 142.683 83.582 135.597 91.6121C133.011 94.1825 131.075 97.3365 129.952 100.806C128.629 99.7793 127.114 99.0203 125.494 98.577C116.613 96.5264 107.741 102.037 105.639 110.909C104.044 116.257 105.081 122.045 108.426 126.513C101.761 132.407 97.9534 140.883 97.9757 149.781C97.9629 163.127 106.408 175.016 119.017 179.391C120.644 186.289 125.995 191.698 132.88 193.394C133.154 197.444 134.474 201.357 136.71 204.747H251.242C259.17 201.045 264.473 193.343 265.105 184.615C271.99 182.921 277.344 177.513 278.971 170.611C291.577 166.236 300.025 154.35 300.009 141.004C300.031 132.107 296.227 123.63 289.558 117.737Z" fill="#FBF1F2"/>
<path d="M167.645 48.7673C167.638 50.263 167.38 51.746 166.879 53.1555C165.645 56.9314 162.858 59.9993 159.216 61.5843C157.471 62.3146 155.599 62.6941 153.711 62.7005C146.016 62.7005 139.778 56.4626 139.778 48.7673C139.778 41.0721 146.016 34.8342 153.711 34.8342C161.407 34.8342 167.645 41.0721 167.645 48.7673Z" fill="#D51F48" fill-opacity="0.3"/>
<path d="M279.108 48.7673C279.086 56.453 272.861 62.6781 265.175 62.7005C263.287 62.6941 261.415 62.3146 259.671 61.5843C256.029 59.9993 253.242 56.9314 252.011 53.1555C251.507 51.746 251.249 50.263 251.242 48.7673C251.242 41.0721 257.48 34.8342 265.175 34.8342C272.871 34.8342 279.108 41.0721 279.108 48.7673Z" fill="#D51F48" fill-opacity="0.3"/>
<path d="M223.377 20.9014C223.357 26.8841 219.515 32.1875 213.832 34.0659C210.996 35.0896 207.89 35.0896 205.055 34.0659C198.313 31.8112 194.359 24.8399 195.88 17.8972C197.401 10.9546 203.914 6.27622 210.977 7.04797C218.041 7.81973 223.389 13.7929 223.377 20.9014Z" fill="#D51F48" fill-opacity="0.3"/>
<path d="M230.345 411.028H71.0862C69.0835 411.028 67.1764 410.161 65.8562 408.653C64.5359 407.147 63.93 405.145 64.1883 403.158L64.9569 397.236C68.5764 370.071 82.7391 345.423 104.386 328.614C118.807 346.032 181.16 387.136 230.345 411.028Z" fill="#FFF3F2"/>
<path d="M293.041 411.028H205.262C156.077 387.136 118.807 346.032 104.386 328.614C110.598 323.702 117.381 319.563 124.588 316.285C133.46 312.085 142.894 309.199 152.595 307.716C154.495 307.722 156.387 307.512 158.239 307.087L158.377 307.228C158.657 307.575 158.935 307.923 159.282 308.341C159.563 308.762 159.981 309.179 160.328 309.597C160.956 310.363 161.582 311.128 162.28 311.897C163.115 312.869 163.951 313.915 164.927 315.031C165.903 316.214 167.016 317.468 168.202 318.721C169.592 320.255 170.986 321.856 172.52 323.53C175.585 326.872 178.93 330.495 182.623 334.188V334.258C185.059 336.695 187.636 339.275 190.353 341.851C197.044 348.402 204.637 355.296 212.855 362.124H212.925C236.818 382.643 263.874 399.159 293.041 411.028Z" fill="#FFF3F2"/>
<path d="M256.887 411.028H205.262C156.077 387.136 118.807 346.032 104.386 328.613C110.598 323.702 117.381 319.563 124.588 316.285C127.239 315.656 129.885 315.098 132.603 314.68C134.5 314.684 136.391 314.473 138.244 314.055C138.244 314.126 138.244 314.126 138.314 314.193C138.652 314.534 138.955 314.907 139.22 315.309C139.567 315.726 139.985 316.144 140.333 316.562C140.891 317.327 141.589 318.096 142.214 318.861C143.05 319.837 143.889 320.883 144.861 321.996C145.907 323.183 146.953 324.436 148.207 325.689C149.6 327.223 150.924 328.824 152.525 330.495C155.592 333.84 158.864 337.463 162.628 341.156V341.223C164.997 343.663 167.574 346.239 170.361 348.819C176.978 355.367 184.571 362.264 192.793 369.092H192.863C212.39 385.659 233.893 399.749 256.887 411.028Z" fill="#FBF1F2"/>
<path d="M272.143 147.414V215.966C272.156 237.54 257.987 256.557 237.309 262.712C232.79 264.064 228.096 264.743 223.376 264.73H195.51C190.79 264.743 186.096 264.064 181.577 262.712C160.899 256.557 146.73 237.54 146.743 215.966V147.204C151.709 148.263 156.884 147.625 161.445 145.393C164.104 144.229 166.554 142.628 168.687 140.657C170.183 139.301 171.433 137.697 172.38 135.918C174.003 137.225 175.843 138.239 177.814 138.916C183.577 141.024 189.843 141.339 195.788 139.821C197.051 139.553 198.285 139.18 199.481 138.705C203.33 137.359 206.879 135.277 209.931 132.576C213.2 135.516 217.078 137.704 221.287 138.983C222.193 139.336 223.124 139.614 224.075 139.821C226.103 140.331 228.182 140.612 230.274 140.657C236.365 141.259 242.466 139.598 247.412 135.988C249.948 140.22 253.784 143.517 258.348 145.393C262.646 147.414 267.446 148.116 272.143 147.414Z" fill="#D51F48" fill-opacity="0.3"/>
<path d="M251.242 147.414V215.966C251.258 237.54 237.086 256.557 216.411 262.712C211.889 264.064 207.195 264.743 202.475 264.73H195.51C190.79 264.743 186.096 264.064 181.577 262.712C160.899 256.557 146.73 237.54 146.743 215.966V147.204C151.709 148.263 156.884 147.625 161.445 145.393C164.104 144.229 166.554 142.628 168.687 140.657C170.779 140.577 172.855 140.3 174.89 139.821C175.894 139.624 176.873 139.321 177.814 138.916C181.976 137.659 185.809 135.494 189.03 132.576C192.082 135.277 195.631 137.359 199.481 138.705C200.677 139.18 201.914 139.553 203.174 139.821C209.163 141.323 215.461 141.033 221.287 138.983C223.169 138.252 224.929 137.244 226.511 135.988C227.468 137.764 228.743 139.346 230.274 140.657C232.376 142.634 234.803 144.238 237.45 145.393C241.748 147.414 246.545 148.116 251.242 147.414Z" fill="#FFF3F2"/>
<path d="M237.31 262.712V271.628C228.884 276.587 219.215 279.027 209.443 278.664C199.672 279.027 190.003 276.587 181.577 271.628V262.712C186.096 264.064 190.79 264.743 195.51 264.73H223.377C228.096 264.743 232.791 264.064 237.31 262.712Z" fill="#D51F48" fill-opacity="0.3"/>
<path d="M223.377 320.466C223.377 328.161 217.139 334.399 209.444 334.399C201.749 334.399 195.511 328.161 195.511 320.466C195.511 312.77 201.749 306.529 209.444 306.529C217.139 306.529 223.377 312.77 223.377 320.466Z" fill="#FFF3F2"/>
<path d="M85.0894 403.158L85.8548 397.236C89.4776 370.071 103.64 345.423 125.288 328.613C131.5 323.702 138.283 319.563 145.49 316.285C154.27 312.104 163.674 301.098 173.497 299.564C175.394 299.571 177.288 299.36 179.138 298.936C179.237 298.949 179.336 298.923 179.419 298.866H179.489C186.664 297.195 172.173 300.747 176.421 294.688H181.578L188.543 264.73L202.476 262.711C181.801 256.557 167.629 237.54 167.645 215.966V213.527C163.534 211.575 149.183 208.58 146.744 204.747V189.781C143.14 187.399 140.672 183.642 139.916 179.391C127.309 175.016 118.862 163.127 118.878 149.78C118.855 140.883 122.663 132.406 129.328 126.513C125.98 122.045 124.946 116.257 126.541 110.909C128.642 102.037 137.511 96.5264 146.396 98.5769C148.013 99.0202 149.528 99.7792 150.854 100.806C151.977 97.3364 153.913 94.1824 156.499 91.612C157.918 90.2248 159.503 89.0193 161.225 88.0275C152.94 82.8644 142.148 84.3729 135.598 91.612C133.011 94.1824 131.076 97.3364 129.953 100.806C128.63 99.7792 127.115 99.0202 125.495 98.5769C116.613 96.5264 107.741 102.037 105.64 110.909C104.045 116.257 105.082 122.045 108.427 126.513C101.762 132.406 97.9541 140.883 97.9764 149.78C97.9636 163.127 106.408 175.016 119.018 179.391C120.644 186.289 125.995 191.697 132.881 193.394C133.155 197.444 134.475 201.357 136.711 204.747C139.16 208.561 142.639 211.607 146.744 213.527V215.966C146.731 237.54 160.9 256.557 181.578 262.711V294.688H176.421C190.389 274.766 147.547 309.591 158.588 307.017H158.518C158.435 307.074 158.336 307.097 158.24 307.087C156.387 307.511 154.496 307.722 152.595 307.715C142.894 309.198 133.461 312.085 124.589 316.285C117.382 319.563 110.599 323.702 104.386 328.613C82.7391 345.423 68.5764 370.071 64.9569 397.236L64.1883 403.158C63.93 405.144 64.5359 407.147 65.8562 408.652C67.1764 410.161 69.0835 411.028 71.0862 411.028H91.9873C89.9814 411.028 88.0776 410.161 86.7573 408.652C85.437 407.147 84.8279 405.144 85.0894 403.158Z" fill="white"/>
<path d="M173.994 84.9788C177.738 85.3169 181.262 86.8891 184.014 89.4499C184.11 89.2969 184.228 89.1533 184.365 89.0322C185.513 87.916 186.805 86.9529 188.205 86.1779C183.667 84.4877 178.752 84.0763 173.994 84.9788Z" fill="white"/>
<path d="M198.716 138.916C197.775 139.321 196.793 139.624 195.788 139.821C196.796 139.585 197.784 139.285 198.751 138.925L198.716 138.916Z" fill="white"/>
<path d="M189.77 140.631C191.795 140.539 193.81 140.268 195.787 139.821C193.813 140.281 191.798 140.552 189.77 140.631Z" fill="white"/>
<path d="M179.696 84.5042C180.114 84.0163 180.531 83.5315 181.019 83.0436C182.904 81.2737 185.203 80.0012 187.704 79.3475L180.114 61.5842C178.369 62.3145 176.5 62.694 174.609 62.7004C166.924 62.6781 160.698 56.453 160.676 48.7673C160.692 45.4092 161.933 42.1723 164.162 39.6625C159.946 34.8278 152.971 33.5011 147.276 36.4574C141.583 39.4105 138.649 45.878 140.177 52.1063C141.704 58.3377 147.295 62.7132 153.711 62.7004C155.599 62.694 157.471 62.3145 159.216 61.5842L169.245 85.0623C172.546 83.6081 176.261 83.4104 179.696 84.5042Z" fill="white"/>
<path d="M169.213 85.1479C169.414 85.1192 169.612 85.0714 169.809 85.0491C169.621 85.0108 169.43 85.0172 169.245 85.0618V85.132L169.213 85.1479Z" fill="white"/>
<path d="M146.743 222.931C142.897 222.931 139.778 219.812 139.778 215.966V213.527C139.778 209.678 142.897 206.559 146.743 206.559C150.593 206.559 153.711 209.678 153.711 213.527V215.966C153.711 219.812 150.593 222.931 146.743 222.931Z" fill="#D51F48"/>
<path d="M272.144 222.931C268.295 222.931 265.176 219.812 265.176 215.966V213.527C265.176 209.678 268.295 206.559 272.144 206.559C275.99 206.559 279.109 209.678 279.109 213.527V215.966C279.109 219.812 275.99 222.931 272.144 222.931Z" fill="#D51F48"/>
<path d="M237.31 285.632C233.464 285.632 230.345 282.513 230.345 278.664V271.268C228.033 271.555 225.705 271.699 223.377 271.699H195.511C193.183 271.699 190.855 271.555 188.542 271.268V278.664C188.542 282.513 185.424 285.632 181.578 285.632C177.728 285.632 174.609 282.513 174.609 278.664V262.712C174.609 260.508 175.652 258.432 177.422 257.118C179.192 255.804 181.479 255.402 183.587 256.04C187.455 257.195 191.473 257.775 195.511 257.765H223.377C227.414 257.775 231.433 257.195 235.301 256.04C237.409 255.402 239.695 255.804 241.465 257.118C243.235 258.432 244.278 260.508 244.278 262.712V278.664C244.278 282.513 241.159 285.632 237.31 285.632Z" fill="#D51F48"/>
<path d="M212.926 369.092C211.281 369.092 209.686 368.528 208.411 367.488C200.428 360.858 192.714 353.912 185.481 346.833C182.799 344.288 180.175 341.666 177.697 339.185C177.499 338.991 177.311 338.783 177.139 338.563C173.592 334.985 170.359 331.484 167.386 328.24L163.043 323.406C161.837 322.13 160.619 320.762 159.551 319.467L156.99 316.434C156.678 316.093 156.25 315.577 155.829 315.07L153.202 311.9C150.644 309.154 150.72 304.881 153.371 302.227C156.021 299.574 160.294 299.494 163.043 302.049C163.126 302.125 163.346 302.342 163.422 302.428L165.476 304.89C165.875 305.343 166.235 305.783 166.602 306.23L170.18 310.455C171.185 311.673 172.199 312.809 173.27 313.947L177.652 318.823C180.659 322.101 183.934 325.651 187.551 329.274C187.745 329.465 187.924 329.666 188.093 329.883C190.325 332.118 192.682 334.459 195.147 336.8C201.564 343.076 208.296 349.189 215.261 355.057C242.935 353.459 265.176 339.788 265.176 323.948C265.077 319.563 263.521 315.334 260.749 311.932C258.418 308.87 259.011 304.501 262.076 302.17C265.137 299.842 269.507 300.435 271.838 303.496C276.446 309.326 279.004 316.514 279.109 323.948C279.109 348.494 250.755 367.896 213.149 369.092H212.926Z" fill="#D51F48"/>
<path d="M158.587 313.985H158.517C154.677 313.966 151.574 310.841 151.584 307.001C151.594 303.162 154.712 300.052 158.552 300.052C162.392 300.052 165.511 303.162 165.52 307.001C165.53 310.841 162.427 313.966 158.587 313.985Z" fill="#D51F48"/>
<path d="M260.44 313.985H260.37C256.53 313.966 253.427 310.841 253.437 307.001C253.446 303.162 256.565 300.052 260.405 300.052C264.244 300.052 267.36 303.162 267.37 307.001C267.379 310.841 264.279 313.966 260.44 313.985Z" fill="#D51F48"/>
<path d="M223.376 271.698H195.51C190.111 271.711 184.737 270.93 179.565 269.38C175.881 268.27 173.796 264.383 174.905 260.699C176.015 257.016 179.903 254.93 183.586 256.04C187.455 257.194 191.473 257.775 195.51 257.765H223.376C227.414 257.775 231.432 257.194 235.3 256.04C238.984 254.93 242.871 257.016 243.981 260.699C245.091 264.383 243.005 268.27 239.322 269.38C234.149 270.93 228.776 271.711 223.376 271.698Z" fill="#D51F48"/>
<path d="M58.0518 396.311C64.6467 347.308 102.67 308.468 151.523 300.83L153.666 314.597C110.914 321.285 77.639 355.274 71.8604 398.16L58.0518 396.311Z" fill="white"/>
<path d="M75.2036 364.114C73.4975 363.272 71.5171 363.186 69.7439 363.872C67.9708 364.561 66.5644 365.958 65.8692 367.727C62.0136 376.867 59.3826 386.479 58.0527 396.311L71.8615 398.161C73.0287 389.56 75.3312 381.15 78.7053 373.152C80.0351 369.686 78.5235 365.779 75.2036 364.114Z" fill="#D51F48"/>
<path d="M153.667 314.598L151.524 300.83C136.105 303.235 121.361 308.848 108.248 317.308C106.175 318.664 104.128 320.076 102.15 321.563C100.61 322.669 99.5991 324.363 99.3568 326.244C99.1144 328.126 99.6661 330.023 100.875 331.481C103.273 334.332 107.454 334.871 110.493 332.721C112.231 331.414 114.007 330.189 115.822 329.006C127.29 321.61 140.183 316.702 153.667 314.598Z" fill="#D51F48"/>
<path d="M80.9241 342.199C79.7537 343.742 79.2116 345.669 79.4029 347.595L79.7633 348.918C79.9259 349.365 80.1492 349.786 80.4266 350.172C80.6339 350.564 80.9018 350.921 81.2207 351.234C81.5555 351.559 81.9127 351.862 82.289 352.139C84.5565 353.731 87.5415 353.858 89.9365 352.465C92.2294 351.131 93.5401 348.583 93.285 345.943C93.1702 345.047 92.9023 344.179 92.4973 343.372C92.105 342.553 91.5629 341.816 90.8932 341.197C89.4996 339.963 87.669 339.338 85.8098 339.463C83.8931 339.727 82.1487 340.706 80.9241 342.199Z" fill="#D51F48"/>
<path d="M347.801 417.997H71.086C67.0742 417.997 63.26 416.265 60.6131 413.251C57.9694 410.238 56.7512 406.229 57.2678 402.252L58.0459 396.33C58.368 393.862 59.9849 391.754 62.2842 390.8C64.5835 389.847 67.2177 390.191 69.1917 391.706C71.1689 393.221 72.1862 395.673 71.8641 398.142L71.086 404.064H347.801L347.023 398.142C341.895 360.192 315.094 328.725 278.448 317.615C278.885 319.697 279.108 321.818 279.108 323.948C279.108 348.494 250.754 367.896 213.149 369.092C211.427 369.153 209.743 368.582 208.41 367.488C200.431 360.858 192.714 353.912 185.484 346.833C182.799 344.288 180.177 341.666 177.696 339.185C177.499 338.991 177.314 338.784 177.138 338.563C173.592 334.985 170.358 331.484 167.386 328.24L156.99 316.435C156.371 315.759 155.689 314.926 155.003 314.094L154.407 313.379C153.839 312.716 153.303 312.075 152.831 311.441C150.701 308.66 150.934 304.737 153.383 302.231C156.014 299.545 160.313 299.462 163.046 302.046C163.129 302.122 163.345 302.339 163.425 302.425C163.636 302.645 163.83 302.878 164.009 303.127C164.296 303.522 164.637 303.908 164.994 304.319L165.683 305.136C166.321 305.911 166.847 306.561 167.431 307.205L177.655 318.817C180.662 322.098 183.937 325.645 187.554 329.267C187.748 329.459 187.927 329.663 188.096 329.876C190.328 332.112 192.682 334.456 195.15 336.797C201.566 343.073 208.298 349.183 215.263 355.051C242.935 353.46 265.175 339.788 265.175 323.948C265.077 319.563 263.52 315.334 260.749 311.932C259.027 309.671 258.855 306.587 260.309 304.147C261.766 301.704 264.56 300.394 267.369 300.834C316.216 308.478 354.233 347.311 360.838 396.308L361.616 402.249C362.136 406.226 360.917 410.234 358.274 413.251C355.627 416.265 351.813 417.997 347.801 417.997Z" fill="#D51F48"/>
<path d="M272.143 220.492C268.294 220.492 265.175 217.373 265.175 213.527V154.456C261.862 154.026 258.622 153.123 255.564 151.781C251.874 150.157 248.509 147.88 245.633 145.058C238.266 147.995 230.163 148.534 222.471 146.598C218.022 145.562 213.784 143.779 209.931 141.327C206.076 143.779 201.834 145.565 197.382 146.602C189.684 148.563 181.561 148.014 174.191 145.045C171.324 147.868 167.963 150.145 164.277 151.758C160.928 153.26 157.363 154.217 153.711 154.59V213.527C153.711 215.91 152.493 218.129 150.484 219.408C148.472 220.687 145.946 220.849 143.787 219.838C135.02 215.734 128.661 207.787 126.572 198.335C120.465 195.662 115.65 190.706 113.153 184.526C102.393 179.526 94.5606 169.818 91.9488 158.248C89.3369 146.675 92.2422 134.547 99.8098 125.41C97.7018 120.199 97.3925 114.434 98.9328 109.028C102.061 96.779 114.256 89.1412 126.643 91.6765C127.803 89.8747 129.152 88.2036 130.667 86.6888C138.898 77.887 151.894 75.4601 162.746 80.6934C167.073 77.8041 172.252 76.4679 177.438 76.908C186.922 70.3321 199.299 69.6529 209.443 75.1508C219.588 69.6337 231.977 70.313 241.458 76.9048C246.641 76.4647 251.82 77.7977 256.141 80.6902C266.99 75.4442 279.992 77.8743 288.216 86.6824C289.731 88.2004 291.086 89.8747 292.25 91.6765C304.618 89.1348 316.803 96.7503 319.938 108.98C321.491 114.399 321.188 120.18 319.077 125.407C326.644 134.541 329.55 146.672 326.938 158.245C324.326 169.815 316.494 179.522 305.734 184.52C303.237 190.703 298.421 195.659 292.314 198.331C290.229 207.784 283.866 215.728 275.1 219.835C274.175 220.269 273.164 220.492 272.143 220.492ZM272.143 140.447C273.99 140.447 275.763 141.18 277.071 142.488C278.378 143.792 279.112 145.565 279.108 147.415V192.419C279.478 189.817 281.277 187.642 283.768 186.797C288.095 185.843 291.594 182.67 292.962 178.454C293.316 175.849 295.105 173.664 297.589 172.803C307.383 169.394 313.946 160.155 313.942 149.781C313.962 142.886 311.018 136.317 305.858 131.744C303.09 129.307 302.698 125.142 304.962 122.234C306.946 119.511 307.532 116.009 306.537 112.791C305.453 107.644 300.456 104.308 295.286 105.284C294.553 105.476 293.861 105.81 293.258 106.273C291.463 107.692 289.087 108.142 286.899 107.472C284.712 106.805 282.993 105.106 282.297 102.924C281.513 100.513 280.164 98.3225 278.365 96.5366C273.929 91.1918 266.062 90.302 260.545 94.5243C259.126 95.8605 257.209 96.543 255.261 96.3995C253.315 96.2592 251.517 95.3057 250.305 93.7749C248.098 91.3448 244.746 90.3052 241.554 91.0578C238.834 92.0305 235.795 91.2332 233.907 89.0455C233.594 88.682 233.288 88.3152 232.924 87.9485C227.2 84.2938 219.817 84.5553 214.367 88.6054C211.647 91.3257 207.236 91.3257 204.516 88.6054C199.05 84.5426 191.639 84.3002 185.918 87.9931C185.596 88.3152 185.293 88.682 184.977 89.0455C183.092 91.2396 180.047 92.0369 177.329 91.0546C174.137 90.3084 170.792 91.3448 168.582 93.7653C167.37 95.2993 165.575 96.2528 163.626 96.3963C161.678 96.5398 159.761 95.8605 158.339 94.5211C152.825 90.2988 144.957 91.1854 140.521 96.5334C138.723 98.3257 137.374 100.517 136.589 102.931C135.894 105.109 134.172 106.805 131.984 107.472C129.797 108.138 127.421 107.689 125.628 106.27C125.007 105.798 124.295 105.456 123.54 105.259C118.373 104.34 113.411 107.695 112.336 112.833C111.357 116.041 111.947 119.523 113.928 122.231C116.189 125.139 115.797 129.307 113.032 131.741C107.872 136.314 104.925 142.886 104.944 149.781C104.938 160.158 111.501 169.397 121.301 172.809C123.782 173.67 125.571 175.855 125.922 178.457C127.29 182.673 130.788 185.849 135.119 186.8C137.6 187.639 139.402 189.804 139.778 192.4V147.204C139.778 145.026 140.799 142.969 142.534 141.652C144.272 140.335 146.526 139.908 148.625 140.498C152.031 141.107 155.542 140.59 158.626 139.021C161.732 137.803 164.369 135.625 166.149 132.803C167.093 130.918 168.837 129.563 170.897 129.113C172.954 128.666 175.104 129.173 176.746 130.494C181.922 133.82 188.284 134.748 194.193 133.039C198.275 132.136 202.064 130.216 205.202 127.455C207.868 124.996 211.979 124.996 214.648 127.455C217.786 130.219 221.578 132.139 225.663 133.042C231.537 134.77 237.877 133.868 243.037 130.567C244.657 129.263 246.774 128.749 248.812 129.167C250.85 129.588 252.591 130.892 253.567 132.732C255.379 135.583 258.045 137.79 261.186 139.037C264.168 140.456 267.497 140.995 270.775 140.59C271.225 140.495 271.684 140.45 272.143 140.447Z" fill="#D51F48"/>
<path d="M205.259 417.997C204.207 417.997 203.164 417.757 202.217 417.295C151.721 392.762 113.226 350.21 99.0223 333.056C97.3735 331.149 96.8856 328.496 97.7467 326.123C98.6077 323.75 100.687 322.031 103.178 321.626C105.668 321.221 108.181 322.194 109.75 324.171C123.377 340.627 160.259 381.421 208.308 404.765C211.226 406.184 212.779 409.431 212.052 412.594C211.322 415.758 208.506 417.997 205.259 417.997Z" fill="#D51F48"/>
<path d="M293.042 418C292.181 418 291.33 417.838 290.526 417.528C260.625 405.423 232.906 388.514 208.458 367.466C205.585 364.975 205.237 360.645 207.677 357.73C210.117 354.812 214.441 354.391 217.4 356.779C240.681 376.848 267.083 392.976 295.565 404.533C298.7 405.741 300.524 409.013 299.908 412.317C299.29 415.618 296.404 418.01 293.042 418Z" fill="#D51F48"/>
<path d="M153.712 69.6656C142.167 69.6656 132.811 60.3088 132.811 48.7675C132.811 37.223 142.167 27.8662 153.712 27.8662C165.253 27.8662 174.61 37.223 174.61 48.7675C174.597 60.3056 165.25 69.6528 153.712 69.6656ZM153.712 41.7993C149.863 41.7993 146.744 44.9183 146.744 48.7675C146.744 52.6135 149.863 55.7325 153.712 55.7325C157.558 55.7325 160.677 52.6135 160.677 48.7675C160.674 44.9214 157.558 41.8057 153.712 41.7993Z" fill="#D51F48"/>
<path d="M265.175 69.6653C253.634 69.6653 244.277 60.3085 244.277 48.7672C244.277 37.2227 253.634 27.866 265.175 27.866C276.72 27.866 286.077 37.2227 286.077 48.7672C286.064 60.3054 276.714 69.6526 265.175 69.6653ZM265.175 41.7991C261.329 41.7991 258.21 44.918 258.21 48.7672C258.21 52.6133 261.329 55.7322 265.175 55.7322C269.025 55.7322 272.144 52.6133 272.144 48.7672C272.137 44.9212 269.021 41.8055 265.175 41.7991Z" fill="#D51F48"/>
<path d="M209.443 41.7994C197.902 41.7994 188.542 32.4426 188.542 20.9013C188.542 9.35678 197.902 0 209.443 0C220.985 0 230.345 9.35678 230.345 20.9013C230.332 32.4362 220.981 41.7866 209.443 41.7994ZM209.443 13.9331C205.597 13.9331 202.475 17.052 202.475 20.9013C202.475 24.7473 205.597 27.8662 209.443 27.8662C213.289 27.8662 216.411 24.7473 216.411 20.9013C216.405 17.0552 213.289 13.9395 209.443 13.9331Z" fill="#D51F48"/>
<path d="M223.376 271.698H195.51C180.726 271.711 166.541 265.843 156.087 255.39C145.63 244.933 139.766 230.751 139.778 215.966C139.778 212.117 142.897 208.998 146.743 208.998C150.592 208.998 153.711 212.117 153.711 215.966C153.699 227.055 158.096 237.693 165.938 245.535C173.78 253.377 184.419 257.778 195.51 257.765H223.376C234.465 257.778 245.107 253.377 252.945 245.535C260.787 237.693 265.188 227.055 265.175 215.966C265.175 212.117 268.294 208.998 272.143 208.998C275.989 208.998 279.108 212.117 279.108 215.966C279.124 230.751 273.256 244.933 262.8 255.39C252.346 265.843 238.161 271.711 223.376 271.698Z" fill="#D51F48"/>
<path d="M146.743 222.931C142.897 222.931 139.778 219.812 139.778 215.966V213.527C139.778 209.678 142.897 206.559 146.743 206.559C150.593 206.559 153.711 209.678 153.711 213.527V215.966C153.711 219.812 150.593 222.931 146.743 222.931Z" fill="#D51F48"/>
<path d="M272.144 222.931C268.295 222.931 265.176 219.812 265.176 215.966V213.527C265.176 209.678 268.295 206.559 272.144 206.559C275.99 206.559 279.109 209.678 279.109 213.527V215.966C279.109 219.812 275.99 222.931 272.144 222.931Z" fill="#D51F48"/>
<path d="M266.292 314.681C263.878 314.7 261.473 314.429 259.123 313.874L258.804 313.807C249.827 311.648 241.966 306.246 236.729 298.64C232.622 292.785 230.396 285.816 230.345 278.663V262.712C230.345 258.862 233.464 255.743 237.31 255.743C241.159 255.743 244.278 258.862 244.278 262.712V278.663C244.332 282.994 245.703 287.207 248.21 290.74C251.399 295.4 256.167 298.742 261.633 300.158C261.827 300.19 262.012 300.225 262.194 300.276C263.534 300.607 264.911 300.767 266.292 300.748C270.141 300.748 273.26 303.867 273.26 307.716C273.26 311.562 270.141 314.681 266.292 314.681Z" fill="#D51F48"/>
<path d="M152.595 314.681C148.749 314.681 145.63 311.562 145.63 307.716C145.63 303.867 148.749 300.748 152.595 300.748C153.96 300.754 155.322 300.604 156.651 300.308C156.881 300.241 157.114 300.19 157.347 300.151C167.188 297.546 174.185 288.837 174.609 278.663V262.712C174.609 258.862 177.728 255.743 181.577 255.743C185.423 255.743 188.542 258.862 188.542 262.712V278.663C188.109 295.438 176.484 309.837 160.182 313.801L159.805 313.877C157.439 314.416 155.022 314.687 152.595 314.681Z" fill="#D51F48"/>
<path d="M209.444 313.498C192.009 313.498 176.781 307.646 170.652 298.589C168.493 295.403 169.328 291.072 172.514 288.913C175.7 286.757 180.034 287.593 182.19 290.779C185.07 295.039 195.603 299.564 209.444 299.564C223.284 299.564 233.818 295.039 236.698 290.782C238.079 288.683 240.48 287.491 242.983 287.656C245.49 287.825 247.713 289.327 248.797 291.592C249.885 293.856 249.671 296.528 248.236 298.589C242.106 307.646 226.878 313.498 209.444 313.498Z" fill="#D51F48"/>
<path d="M209.443 341.364C197.902 341.364 188.542 332.007 188.542 320.466C188.542 308.921 197.902 299.564 209.443 299.564C220.985 299.564 230.345 308.921 230.345 320.466C230.332 332.001 220.981 341.351 209.443 341.364ZM209.443 313.498C205.597 313.498 202.475 316.617 202.475 320.466C202.475 324.312 205.597 327.431 209.443 327.431C213.289 327.431 216.411 324.312 216.411 320.466C216.405 316.62 213.289 313.504 209.443 313.498Z" fill="#D51F48"/>
<path d="M169.247 92.0625C166.233 92.0753 163.554 90.1427 162.617 87.2757L152.81 64.3239C151.298 60.784 152.941 56.6892 156.481 55.1776C160.017 53.6659 164.112 55.3083 165.624 58.845L175.657 82.3231C176.578 84.4789 176.355 86.9536 175.067 88.9117C173.778 90.8698 171.597 92.053 169.253 92.0625H169.247Z" fill="#D51F48"/>
<path d="M249.642 92.0622C247.799 92.0717 246.026 91.3446 244.718 90.0435C243.411 88.7455 242.677 86.9788 242.674 85.1323C242.674 84.1692 242.865 83.2156 243.235 82.3227L253.268 58.8478C254.808 55.3526 258.871 53.7485 262.382 55.2505C265.89 56.7494 267.539 60.7964 266.079 64.3235L256.135 87.5911C255.102 90.2795 252.522 92.0558 249.642 92.0622Z" fill="#D51F48"/>
<path d="M177.875 62.3113C174.154 62.3081 170.457 61.7117 166.924 60.5413L164.605 59.7409C162.239 58.9404 160.482 56.9313 160.004 54.4789C159.522 52.0297 160.393 49.5071 162.284 47.8711C164.172 46.2383 166.793 45.7408 169.15 46.57L171.379 47.3353C182.289 50.9167 194.041 45.0041 197.67 34.1134L198.47 31.7949C199.271 29.4286 201.277 27.6714 203.729 27.1931C206.182 26.7115 208.704 27.5821 210.337 29.4733C211.973 31.3612 212.47 33.9826 211.641 36.3394L210.873 38.5685C207.99 47.3066 201.72 54.5267 193.47 58.6056C188.632 61.0357 183.294 62.3049 177.875 62.3113Z" fill="#D51F48"/>
<path d="M240.99 62.3049C226.011 62.2794 212.725 52.6898 207.983 38.4792L207.246 36.3394C206.417 33.9826 206.915 31.3612 208.551 29.4733C210.183 27.5821 212.706 26.7115 215.158 27.1931C217.608 27.6714 219.617 29.4286 220.417 31.7949L221.182 34.0241C222.924 39.2893 226.684 43.6456 231.636 46.1394C236.592 48.6301 242.333 49.0511 247.595 47.3098L249.734 46.57C252.091 45.7408 254.713 46.2383 256.604 47.8743C258.492 49.5071 259.362 52.0297 258.881 54.4821C258.402 56.9345 256.645 58.9404 254.279 59.7409L252.05 60.5095C248.484 61.6926 244.75 62.2985 240.99 62.3049Z" fill="#D51F48"/>
</g>
<defs>
<clipPath id="clip0">
<rect width="418" height="418" fill="white"/>
</clipPath>
</defs>
</svg>
