<svg width="2028" height="513" viewBox="0 0 2028 513" fill="none" xmlns="http://www.w3.org/2000/svg">
<path d="M127.752 281.045C94.8239 281.045 68.1335 307.739 68.1335 340.664C68.1335 373.588 94.8239 400.282 127.752 400.282C160.677 400.282 187.371 373.588 187.371 340.664C187.332 307.755 160.661 281.084 127.752 281.045ZM127.752 383.249C104.231 383.249 85.1668 364.181 85.1668 340.664C85.1668 317.147 104.231 298.078 127.752 298.078C151.269 298.078 170.338 317.147 170.338 340.664C170.306 364.173 151.257 383.222 127.752 383.249Z" fill="#D51F48"/>
<path d="M136.267 332.149V315.112C136.267 310.41 132.454 306.597 127.752 306.597C123.046 306.597 119.234 310.41 119.234 315.112V340.664C119.234 345.369 123.046 349.182 127.752 349.182H153.3C158.006 349.182 161.819 345.369 161.819 340.664C161.819 335.962 158.006 332.149 153.3 332.149H136.267Z" fill="#D51F48"/>
<path d="M17.0334 434.349H34.0667V493.968C34.0784 503.368 41.6965 510.99 51.1001 511.001H204.404C213.804 510.99 221.426 503.368 221.438 493.968V434.349H238.471C247.875 434.337 255.493 426.719 255.504 417.316V221.43C255.504 216.724 251.691 212.912 246.986 212.912C242.284 212.912 238.471 216.724 238.471 221.43V246.978H221.438V170.326C221.438 165.624 217.625 161.811 212.919 161.811C208.217 161.811 204.404 165.624 204.404 170.326V183.835L187.371 166.802V76.6446C187.371 71.9389 183.558 68.126 178.852 68.126C174.15 68.126 170.338 71.9389 170.338 76.6446V78.4107L139.355 7.42342C137.249 2.86975 132.68 -0.0347737 127.663 0.000314392C122.645 0.0354025 118.115 3.0023 116.076 7.58326L85.1668 78.4185V76.6446C85.1668 71.9389 81.3539 68.126 76.6521 68.126C71.9464 68.126 68.1335 71.9389 68.1335 76.6446V166.802L51.1001 183.835V170.326C51.1001 165.624 47.2872 161.811 42.5854 161.811C37.8797 161.811 34.0667 165.624 34.0667 170.326V246.978H17.0334V221.43C17.0334 216.724 13.2205 212.912 8.51473 212.912C3.81292 212.912 0 216.724 0 221.43V417.316C0.0116953 426.719 7.62973 434.337 17.0334 434.349ZM221.438 264.012H238.471L238.479 417.316H221.438V264.012ZM102.2 493.968H85.1668V434.349H102.2V493.968ZM136.267 493.968H119.234V434.349H136.267V493.968ZM170.338 493.968H153.3V434.349H170.338V493.968ZM204.404 493.968H187.371V434.349H204.404V493.968ZM127.752 23.4197L165.842 110.711H89.662L127.752 23.4197ZM85.1668 127.745H170.338V161.811H153.3V144.778C153.3 140.072 149.487 136.259 144.786 136.259C140.08 136.259 136.267 140.072 136.267 144.778V161.811H119.234V144.778C119.234 140.072 115.421 136.259 110.719 136.259C106.013 136.259 102.2 140.072 102.2 144.778V161.811H85.1668V127.745ZM80.1765 178.845H175.324L192.361 195.878H63.1431L80.1765 178.845ZM51.1001 212.912H204.404V246.978H187.371V229.945C187.371 225.243 183.558 221.43 178.852 221.43C174.15 221.43 170.338 225.243 170.338 229.945V246.978H153.3V229.945C153.3 225.243 149.487 221.43 144.786 221.43C140.08 221.43 136.267 225.243 136.267 229.945V246.978H119.234V229.945C119.234 225.243 115.421 221.43 110.719 221.43C106.013 221.43 102.2 225.243 102.2 229.945V246.978H85.1668V229.945C85.1668 225.243 81.3539 221.43 76.6521 221.43C71.9464 221.43 68.1335 225.243 68.1335 229.945V246.978H51.1001V212.912ZM51.1001 264.012H204.404V417.316H51.1001V264.012ZM51.1001 434.349H68.1335V493.968H51.1001V434.349ZM17.0334 264.012H34.0667V417.316H17.0334V264.012Z" fill="#D51F48"/>
<path d="M484.18 303.16V338H363.8V157.82H404.36V303.16H484.18ZM635.624 269.36C635.624 280.107 634.064 289.987 630.944 299C627.824 307.84 623.317 315.467 617.424 321.88C611.531 328.12 604.424 332.973 596.104 336.44C587.957 339.907 578.771 341.64 568.544 341.64C558.491 341.64 549.304 339.907 540.984 336.44C532.837 332.973 525.817 328.12 519.924 321.88C514.031 315.467 509.437 307.84 506.144 299C502.851 289.987 501.204 280.107 501.204 269.36C501.204 258.613 502.851 248.82 506.144 239.98C509.611 231.14 514.291 223.6 520.184 217.36C526.251 211.12 533.357 206.267 541.504 202.8C549.824 199.333 558.837 197.6 568.544 197.6C578.424 197.6 587.437 199.333 595.584 202.8C603.904 206.267 611.011 211.12 616.904 217.36C622.797 223.6 627.391 231.14 630.684 239.98C633.977 248.82 635.624 258.613 635.624 269.36ZM596.104 269.36C596.104 257.4 593.677 248.04 588.824 241.28C584.144 234.347 577.384 230.88 568.544 230.88C559.704 230.88 552.857 234.347 548.004 241.28C543.151 248.04 540.724 257.4 540.724 269.36C540.724 281.32 543.151 290.853 548.004 297.96C552.857 304.893 559.704 308.36 568.544 308.36C577.384 308.36 584.144 304.893 588.824 297.96C593.677 290.853 596.104 281.32 596.104 269.36ZM665.634 205.92C672.22 204.013 680.714 202.28 691.114 200.72C701.514 198.987 712.434 198.12 723.874 198.12C735.487 198.12 745.107 199.68 752.734 202.8C760.534 205.747 766.687 209.993 771.194 215.54C775.7 221.087 778.907 227.673 780.814 235.3C782.72 242.927 783.674 251.42 783.674 260.78V338H744.934V265.46C744.934 252.98 743.287 244.14 739.994 238.94C736.7 233.74 730.547 231.14 721.534 231.14C718.76 231.14 715.814 231.313 712.694 231.66C709.574 231.833 706.8 232.093 704.374 232.44V338H665.634V205.92ZM851.759 268.58C851.759 280.54 854.446 290.16 859.819 297.44C865.192 304.72 873.166 308.36 883.739 308.36C887.206 308.36 890.412 308.273 893.359 308.1C896.306 307.753 898.732 307.407 900.639 307.06V236.6C898.212 235.04 895.006 233.74 891.019 232.7C887.206 231.66 883.306 231.14 879.319 231.14C860.946 231.14 851.759 243.62 851.759 268.58ZM939.379 333.58C935.912 334.62 931.926 335.66 927.419 336.7C922.912 337.567 918.146 338.347 913.119 339.04C908.266 339.733 903.239 340.253 898.039 340.6C893.012 341.12 888.159 341.38 883.479 341.38C872.212 341.38 862.159 339.733 853.319 336.44C844.479 333.147 837.026 328.467 830.959 322.4C824.892 316.16 820.212 308.707 816.919 300.04C813.799 291.2 812.239 281.32 812.239 270.4C812.239 259.307 813.626 249.34 816.399 240.5C819.172 231.487 823.159 223.86 828.359 217.62C833.559 211.38 839.886 206.613 847.339 203.32C854.966 200.027 863.632 198.38 873.339 198.38C878.712 198.38 883.479 198.9 887.639 199.94C891.972 200.98 896.306 202.453 900.639 204.36V142.48L939.379 136.24V333.58ZM1103.57 269.36C1103.57 280.107 1102.01 289.987 1098.89 299C1095.77 307.84 1091.27 315.467 1085.37 321.88C1079.48 328.12 1072.37 332.973 1064.05 336.44C1055.91 339.907 1046.72 341.64 1036.49 341.64C1026.44 341.64 1017.25 339.907 1008.93 336.44C1000.79 332.973 993.766 328.12 987.873 321.88C981.98 315.467 977.386 307.84 974.093 299C970.8 289.987 969.153 280.107 969.153 269.36C969.153 258.613 970.8 248.82 974.093 239.98C977.56 231.14 982.24 223.6 988.133 217.36C994.2 211.12 1001.31 206.267 1009.45 202.8C1017.77 199.333 1026.79 197.6 1036.49 197.6C1046.37 197.6 1055.39 199.333 1063.53 202.8C1071.85 206.267 1078.96 211.12 1084.85 217.36C1090.75 223.6 1095.34 231.14 1098.63 239.98C1101.93 248.82 1103.57 258.613 1103.57 269.36ZM1064.05 269.36C1064.05 257.4 1061.63 248.04 1056.77 241.28C1052.09 234.347 1045.33 230.88 1036.49 230.88C1027.65 230.88 1020.81 234.347 1015.95 241.28C1011.1 248.04 1008.67 257.4 1008.67 269.36C1008.67 281.32 1011.1 290.853 1015.95 297.96C1020.81 304.893 1027.65 308.36 1036.49 308.36C1045.33 308.36 1052.09 304.893 1056.77 297.96C1061.63 290.853 1064.05 281.32 1064.05 269.36ZM1133.58 205.92C1140.17 204.013 1148.66 202.28 1159.06 200.72C1169.46 198.987 1180.38 198.12 1191.82 198.12C1203.44 198.12 1213.06 199.68 1220.68 202.8C1228.48 205.747 1234.64 209.993 1239.14 215.54C1243.65 221.087 1246.86 227.673 1248.76 235.3C1250.67 242.927 1251.62 251.42 1251.62 260.78V338H1212.88V265.46C1212.88 252.98 1211.24 244.14 1207.94 238.94C1204.65 233.74 1198.5 231.14 1189.48 231.14C1186.71 231.14 1183.76 231.313 1180.64 231.66C1177.52 231.833 1174.75 232.093 1172.32 232.44V338H1133.58V205.92Z" fill="white"/>
<path d="M1485.39 157.82V192.4H1431.05V338H1390.49V192.4H1336.15V157.82H1485.39ZM1617.23 269.36C1617.23 280.107 1615.67 289.987 1612.55 299C1609.43 307.84 1604.92 315.467 1599.03 321.88C1593.13 328.12 1586.03 332.973 1577.71 336.44C1569.56 339.907 1560.37 341.64 1550.15 341.64C1540.09 341.64 1530.91 339.907 1522.59 336.44C1514.44 332.973 1507.42 328.12 1501.53 321.88C1495.63 315.467 1491.04 307.84 1487.75 299C1484.45 289.987 1482.81 280.107 1482.81 269.36C1482.81 258.613 1484.45 248.82 1487.75 239.98C1491.21 231.14 1495.89 223.6 1501.79 217.36C1507.85 211.12 1514.96 206.267 1523.11 202.8C1531.43 199.333 1540.44 197.6 1550.15 197.6C1560.03 197.6 1569.04 199.333 1577.19 202.8C1585.51 206.267 1592.61 211.12 1598.51 217.36C1604.4 223.6 1608.99 231.14 1612.29 239.98C1615.58 248.82 1617.23 258.613 1617.23 269.36ZM1577.71 269.36C1577.71 257.4 1575.28 248.04 1570.43 241.28C1565.75 234.347 1558.99 230.88 1550.15 230.88C1541.31 230.88 1534.46 234.347 1529.61 241.28C1524.75 248.04 1522.33 257.4 1522.33 269.36C1522.33 281.32 1524.75 290.853 1529.61 297.96C1534.46 304.893 1541.31 308.36 1550.15 308.36C1558.99 308.36 1565.75 304.893 1570.43 297.96C1575.28 290.853 1577.71 281.32 1577.71 269.36ZM1763.98 333.32C1757.39 335.227 1748.9 336.96 1738.5 338.52C1728.1 340.253 1717.18 341.12 1705.74 341.12C1694.12 341.12 1684.42 339.56 1676.62 336.44C1668.99 333.32 1662.92 328.987 1658.42 323.44C1653.91 317.72 1650.7 310.96 1648.8 303.16C1646.89 295.36 1645.94 286.78 1645.94 277.42V201.24H1684.68V272.74C1684.68 285.22 1686.32 294.233 1689.62 299.78C1692.91 305.327 1699.06 308.1 1708.08 308.1C1710.85 308.1 1713.8 308.013 1716.92 307.84C1720.04 307.493 1722.81 307.147 1725.24 306.8V201.24H1763.98V333.32ZM1882.76 235.56C1879.29 234.693 1875.22 233.827 1870.54 232.96C1865.86 231.92 1860.83 231.4 1855.46 231.4C1853.03 231.4 1850.09 231.66 1846.62 232.18C1843.33 232.527 1840.81 232.96 1839.08 233.48V338H1800.34V208.52C1807.27 206.093 1815.42 203.84 1824.78 201.76C1834.31 199.507 1844.89 198.38 1856.5 198.38C1858.58 198.38 1861.09 198.553 1864.04 198.9C1866.99 199.073 1869.93 199.42 1872.88 199.94C1875.83 200.287 1878.77 200.807 1881.72 201.5C1884.67 202.02 1887.18 202.713 1889.26 203.58L1882.76 235.56ZM1949.29 310.18C1956.39 310.18 1961.42 309.487 1964.37 308.1C1967.31 306.713 1968.79 304.027 1968.79 300.04C1968.79 296.92 1966.88 294.233 1963.07 291.98C1959.25 289.553 1953.45 286.867 1945.65 283.92C1939.58 281.667 1934.03 279.327 1929.01 276.9C1924.15 274.473 1919.99 271.613 1916.53 268.32C1913.06 264.853 1910.37 260.78 1908.47 256.1C1906.56 251.42 1905.61 245.787 1905.61 239.2C1905.61 226.373 1910.37 216.233 1919.91 208.78C1929.44 201.327 1942.53 197.6 1959.17 197.6C1967.49 197.6 1975.46 198.38 1983.09 199.94C1990.71 201.327 1996.78 202.887 2001.29 204.62L1994.53 234.78C1990.02 233.22 1985.08 231.833 1979.71 230.62C1974.51 229.407 1968.61 228.8 1962.03 228.8C1949.89 228.8 1943.83 232.18 1943.83 238.94C1943.83 240.5 1944.09 241.887 1944.61 243.1C1945.13 244.313 1946.17 245.527 1947.73 246.74C1949.29 247.78 1951.37 248.993 1953.97 250.38C1956.74 251.593 1960.21 252.98 1964.37 254.54C1972.86 257.66 1979.88 260.78 1985.43 263.9C1990.97 266.847 1995.31 270.14 1998.43 273.78C2001.72 277.247 2003.97 281.147 2005.19 285.48C2006.57 289.813 2007.27 294.84 2007.27 300.56C2007.27 314.08 2002.15 324.307 1991.93 331.24C1981.87 338.173 1967.57 341.64 1949.03 341.64C1936.89 341.64 1926.75 340.6 1918.61 338.52C1910.63 336.44 1905.09 334.707 1901.97 333.32L1908.47 301.86C1915.05 304.46 1921.81 306.54 1928.75 308.1C1935.68 309.487 1942.53 310.18 1949.29 310.18Z" fill="#D51F48"/>
<path d="M383.06 474.28C385.58 470.02 387.98 465.76 390.26 461.5C392.54 457.24 394.64 452.95 396.56 448.63H412.04C408.62 455.35 405.08 461.86 401.42 468.16C397.76 474.46 393.89 480.79 389.81 487.15V511H375.77V487.33C371.69 480.97 367.79 474.61 364.07 468.25C360.41 461.89 356.87 455.35 353.45 448.63H369.74C371.66 452.95 373.73 457.24 375.95 461.5C378.17 465.76 380.54 470.02 383.06 474.28ZM428.349 479.77C428.349 482.83 428.709 485.59 429.429 488.05C430.209 490.51 431.289 492.64 432.669 494.44C434.109 496.18 435.849 497.53 437.889 498.49C439.929 499.45 442.269 499.93 444.909 499.93C447.489 499.93 449.799 499.45 451.839 498.49C453.939 497.53 455.679 496.18 457.059 494.44C458.499 492.64 459.579 490.51 460.299 488.05C461.079 485.59 461.469 482.83 461.469 479.77C461.469 476.71 461.079 473.95 460.299 471.49C459.579 468.97 458.499 466.84 457.059 465.1C455.679 463.3 453.939 461.92 451.839 460.96C449.799 460 447.489 459.52 444.909 459.52C442.269 459.52 439.929 460.03 437.889 461.05C435.849 462.01 434.109 463.39 432.669 465.19C431.289 466.93 430.209 469.06 429.429 471.58C428.709 474.04 428.349 476.77 428.349 479.77ZM475.959 479.77C475.959 485.11 475.149 489.82 473.529 493.9C471.969 497.92 469.809 501.31 467.049 504.07C464.289 506.77 460.989 508.81 457.149 510.19C453.369 511.57 449.289 512.26 444.909 512.26C440.649 512.26 436.629 511.57 432.849 510.19C429.069 508.81 425.769 506.77 422.949 504.07C420.129 501.31 417.909 497.92 416.289 493.9C414.669 489.82 413.859 485.11 413.859 479.77C413.859 474.43 414.699 469.75 416.379 465.73C418.059 461.65 420.309 458.23 423.129 455.47C426.009 452.71 429.309 450.64 433.029 449.26C436.809 447.88 440.769 447.19 444.909 447.19C449.169 447.19 453.189 447.88 456.969 449.26C460.749 450.64 464.049 452.71 466.869 455.47C469.689 458.23 471.909 461.65 473.529 465.73C475.149 469.75 475.959 474.43 475.959 479.77ZM512.953 512.26C508.573 512.26 504.793 511.66 501.613 510.46C498.433 509.2 495.793 507.49 493.693 505.33C491.653 503.11 490.123 500.5 489.103 497.5C488.143 494.44 487.663 491.08 487.663 487.42V448.63H501.703V486.25C501.703 488.77 501.973 490.93 502.513 492.73C503.113 494.47 503.893 495.91 504.853 497.05C505.873 498.13 507.073 498.91 508.453 499.39C509.893 499.87 511.453 500.11 513.133 500.11C516.553 500.11 519.313 499.06 521.413 496.96C523.573 494.86 524.653 491.29 524.653 486.25V448.63H538.693V487.42C538.693 491.08 538.183 494.44 537.163 497.5C536.143 500.56 534.583 503.2 532.483 505.42C530.383 507.58 527.713 509.26 524.473 510.46C521.233 511.66 517.393 512.26 512.953 512.26ZM571.365 447.91C580.725 447.91 587.895 449.59 592.875 452.95C597.855 456.25 600.345 461.41 600.345 468.43C600.345 472.81 599.325 476.38 597.285 479.14C595.305 481.84 592.425 483.97 588.645 485.53C589.905 487.09 591.225 488.89 592.605 490.93C593.985 492.91 595.335 495.01 596.655 497.23C598.035 499.39 599.355 501.67 600.615 504.07C601.875 506.41 603.045 508.72 604.125 511H588.375C587.235 508.96 586.065 506.89 584.865 504.79C583.725 502.69 582.525 500.65 581.265 498.67C580.065 496.69 578.865 494.83 577.665 493.09C576.465 491.29 575.265 489.67 574.065 488.23H567.135V511H553.095V449.53C556.155 448.93 559.305 448.51 562.545 448.27C565.845 448.03 568.785 447.91 571.365 447.91ZM572.175 459.88C571.155 459.88 570.225 459.91 569.385 459.97C568.605 460.03 567.855 460.09 567.135 460.15V477.07H571.095C576.375 477.07 580.155 476.41 582.435 475.09C584.715 473.77 585.855 471.52 585.855 468.34C585.855 465.28 584.685 463.12 582.345 461.86C580.065 460.54 576.675 459.88 572.175 459.88ZM666.966 459.43C660.426 459.43 655.686 461.26 652.746 464.92C649.866 468.52 648.426 473.47 648.426 479.77C648.426 482.83 648.786 485.62 649.506 488.14C650.226 490.6 651.306 492.73 652.746 494.53C654.186 496.33 655.986 497.74 658.146 498.76C660.306 499.72 662.826 500.2 665.706 500.2C667.266 500.2 668.586 500.17 669.666 500.11C670.806 500.05 671.796 499.93 672.636 499.75V478.06H686.676V508.93C684.996 509.59 682.296 510.28 678.576 511C674.856 511.78 670.266 512.17 664.806 512.17C660.126 512.17 655.866 511.45 652.026 510.01C648.246 508.57 645.006 506.47 642.306 503.71C639.606 500.95 637.506 497.56 636.006 493.54C634.566 489.52 633.846 484.93 633.846 479.77C633.846 474.55 634.656 469.93 636.276 465.91C637.896 461.89 640.116 458.5 642.936 455.74C645.756 452.92 649.056 450.79 652.836 449.35C656.676 447.91 660.756 447.19 665.076 447.19C668.016 447.19 670.656 447.4 672.996 447.82C675.396 448.18 677.436 448.63 679.116 449.17C680.856 449.65 682.266 450.16 683.346 450.7C684.486 451.24 685.296 451.66 685.776 451.96L681.726 463.21C679.806 462.19 677.586 461.32 675.066 460.6C672.606 459.82 669.906 459.43 666.966 459.43ZM725.029 512.26C720.649 512.26 716.869 511.66 713.689 510.46C710.509 509.2 707.869 507.49 705.769 505.33C703.729 503.11 702.199 500.5 701.179 497.5C700.219 494.44 699.739 491.08 699.739 487.42V448.63H713.779V486.25C713.779 488.77 714.049 490.93 714.589 492.73C715.189 494.47 715.969 495.91 716.929 497.05C717.949 498.13 719.149 498.91 720.529 499.39C721.969 499.87 723.529 500.11 725.209 500.11C728.629 500.11 731.389 499.06 733.489 496.96C735.649 494.86 736.729 491.29 736.729 486.25V448.63H750.769V487.42C750.769 491.08 750.259 494.44 749.239 497.5C748.219 500.56 746.659 503.2 744.559 505.42C742.459 507.58 739.789 509.26 736.549 510.46C733.309 511.66 729.469 512.26 725.029 512.26ZM765.172 448.63H779.212V511H765.172V448.63ZM808.588 499.57C809.248 499.63 809.998 499.69 810.838 499.75C811.738 499.75 812.788 499.75 813.988 499.75C821.008 499.75 826.198 497.98 829.558 494.44C832.978 490.9 834.688 486.01 834.688 479.77C834.688 473.23 833.068 468.28 829.828 464.92C826.588 461.56 821.458 459.88 814.438 459.88C813.478 459.88 812.488 459.91 811.468 459.97C810.448 459.97 809.488 460.03 808.588 460.15V499.57ZM849.178 479.77C849.178 485.17 848.338 489.88 846.658 493.9C844.978 497.92 842.578 501.25 839.458 503.89C836.398 506.53 832.648 508.51 828.208 509.83C823.768 511.15 818.788 511.81 813.268 511.81C810.748 511.81 807.808 511.69 804.448 511.45C801.088 511.27 797.788 510.85 794.548 510.19V449.44C797.788 448.84 801.148 448.45 804.628 448.27C808.168 448.03 811.198 447.91 813.718 447.91C819.058 447.91 823.888 448.51 828.208 449.71C832.588 450.91 836.338 452.8 839.458 455.38C842.578 457.96 844.978 461.26 846.658 465.28C848.338 469.3 849.178 474.13 849.178 479.77ZM861.806 511V448.63H903.926V460.42H875.846V472.66H900.776V484.18H875.846V499.21H905.996V511H861.806ZM986.067 448.63V460.6H967.257V511H953.217V460.6H934.407V448.63H986.067ZM1005.67 479.77C1005.67 482.83 1006.03 485.59 1006.75 488.05C1007.53 490.51 1008.61 492.64 1009.99 494.44C1011.43 496.18 1013.17 497.53 1015.21 498.49C1017.25 499.45 1019.59 499.93 1022.23 499.93C1024.81 499.93 1027.12 499.45 1029.16 498.49C1031.26 497.53 1033 496.18 1034.38 494.44C1035.82 492.64 1036.9 490.51 1037.62 488.05C1038.4 485.59 1038.79 482.83 1038.79 479.77C1038.79 476.71 1038.4 473.95 1037.62 471.49C1036.9 468.97 1035.82 466.84 1034.38 465.1C1033 463.3 1031.26 461.92 1029.16 460.96C1027.12 460 1024.81 459.52 1022.23 459.52C1019.59 459.52 1017.25 460.03 1015.21 461.05C1013.17 462.01 1011.43 463.39 1009.99 465.19C1008.61 466.93 1007.53 469.06 1006.75 471.58C1006.03 474.04 1005.67 476.77 1005.67 479.77ZM1053.28 479.77C1053.28 485.11 1052.47 489.82 1050.85 493.9C1049.29 497.92 1047.13 501.31 1044.37 504.07C1041.61 506.77 1038.31 508.81 1034.47 510.19C1030.69 511.57 1026.61 512.26 1022.23 512.26C1017.97 512.26 1013.95 511.57 1010.17 510.19C1006.39 508.81 1003.09 506.77 1000.27 504.07C997.451 501.31 995.231 497.92 993.611 493.9C991.991 489.82 991.181 485.11 991.181 479.77C991.181 474.43 992.021 469.75 993.701 465.73C995.381 461.65 997.631 458.23 1000.45 455.47C1003.33 452.71 1006.63 450.64 1010.35 449.26C1014.13 447.88 1018.09 447.19 1022.23 447.19C1026.49 447.19 1030.51 447.88 1034.29 449.26C1038.07 450.64 1041.37 452.71 1044.19 455.47C1047.01 458.23 1049.23 461.65 1050.85 465.73C1052.47 469.75 1053.28 474.43 1053.28 479.77ZM1109.2 511.81C1105.78 511.81 1102.36 511.69 1098.94 511.45C1095.58 511.27 1092.07 510.79 1088.41 510.01V449.53C1091.29 448.99 1094.44 448.6 1097.86 448.36C1101.28 448.06 1104.46 447.91 1107.4 447.91C1111.36 447.91 1114.99 448.21 1118.29 448.81C1121.65 449.35 1124.53 450.31 1126.93 451.69C1129.33 453.07 1131.19 454.9 1132.51 457.18C1133.89 459.4 1134.58 462.16 1134.58 465.46C1134.58 470.44 1132.18 474.37 1127.38 477.25C1131.34 478.75 1134.04 480.79 1135.48 483.37C1136.92 485.95 1137.64 488.86 1137.64 492.1C1137.64 498.64 1135.24 503.56 1130.44 506.86C1125.7 510.16 1118.62 511.81 1109.2 511.81ZM1102.09 483.82V499.93C1103.11 500.05 1104.22 500.14 1105.42 500.2C1106.62 500.26 1107.94 500.29 1109.38 500.29C1113.58 500.29 1116.97 499.69 1119.55 498.49C1122.13 497.29 1123.42 495.07 1123.42 491.83C1123.42 488.95 1122.34 486.91 1120.18 485.71C1118.02 484.45 1114.93 483.82 1110.91 483.82H1102.09ZM1102.09 473.11H1108.93C1113.25 473.11 1116.34 472.57 1118.2 471.49C1120.06 470.35 1120.99 468.55 1120.99 466.09C1120.99 463.57 1120.03 461.8 1118.11 460.78C1116.19 459.76 1113.37 459.25 1109.65 459.25C1108.45 459.25 1107.16 459.28 1105.78 459.34C1104.4 459.34 1103.17 459.4 1102.09 459.52V473.11ZM1149.77 511V448.63H1191.89V460.42H1163.81V472.66H1188.74V484.18H1163.81V499.21H1193.96V511H1149.77ZM1247.01 511C1246.35 508.84 1245.6 506.62 1244.76 504.34C1243.98 502.06 1243.2 499.78 1242.42 497.5H1218.12C1217.34 499.78 1216.53 502.06 1215.69 504.34C1214.91 506.62 1214.19 508.84 1213.53 511H1198.95C1201.29 504.28 1203.51 498.07 1205.61 492.37C1207.71 486.67 1209.75 481.3 1211.73 476.26C1213.77 471.22 1215.75 466.45 1217.67 461.95C1219.65 457.39 1221.69 452.95 1223.79 448.63H1237.2C1239.24 452.95 1241.25 457.39 1243.23 461.95C1245.21 466.45 1247.19 471.22 1249.17 476.26C1251.21 481.3 1253.28 486.67 1255.38 492.37C1257.48 498.07 1259.7 504.28 1262.04 511H1247.01ZM1230.18 462.76C1229.88 463.66 1229.43 464.89 1228.83 466.45C1228.23 468.01 1227.54 469.81 1226.76 471.85C1225.98 473.89 1225.11 476.14 1224.15 478.6C1223.25 481.06 1222.32 483.64 1221.36 486.34H1239.09C1238.13 483.64 1237.2 481.06 1236.3 478.6C1235.4 476.14 1234.53 473.89 1233.69 471.85C1232.91 469.81 1232.22 468.01 1231.62 466.45C1231.02 464.89 1230.54 463.66 1230.18 462.76ZM1293.65 512.26C1289.27 512.26 1285.49 511.66 1282.31 510.46C1279.13 509.2 1276.49 507.49 1274.39 505.33C1272.35 503.11 1270.82 500.5 1269.8 497.5C1268.84 494.44 1268.36 491.08 1268.36 487.42V448.63H1282.4V486.25C1282.4 488.77 1282.67 490.93 1283.21 492.73C1283.81 494.47 1284.59 495.91 1285.55 497.05C1286.57 498.13 1287.77 498.91 1289.15 499.39C1290.59 499.87 1292.15 500.11 1293.83 500.11C1297.25 500.11 1300.01 499.06 1302.11 496.96C1304.27 494.86 1305.35 491.29 1305.35 486.25V448.63H1319.39V487.42C1319.39 491.08 1318.88 494.44 1317.86 497.5C1316.84 500.56 1315.28 503.2 1313.18 505.42C1311.08 507.58 1308.41 509.26 1305.17 510.46C1301.93 511.66 1298.09 512.26 1293.65 512.26ZM1380.05 448.63V460.6H1361.24V511H1347.2V460.6H1328.39V448.63H1380.05ZM1389.98 448.63H1404.02V511H1389.98V448.63ZM1419.35 511V448.63H1461.11V460.42H1433.39V473.47H1458.05V485.26H1433.39V511H1419.35ZM1496.32 512.26C1491.94 512.26 1488.16 511.66 1484.98 510.46C1481.8 509.2 1479.16 507.49 1477.06 505.33C1475.02 503.11 1473.49 500.5 1472.47 497.5C1471.51 494.44 1471.03 491.08 1471.03 487.42V448.63H1485.07V486.25C1485.07 488.77 1485.34 490.93 1485.88 492.73C1486.48 494.47 1487.26 495.91 1488.22 497.05C1489.24 498.13 1490.44 498.91 1491.82 499.39C1493.26 499.87 1494.82 500.11 1496.5 500.11C1499.92 500.11 1502.68 499.06 1504.78 496.96C1506.94 494.86 1508.02 491.29 1508.02 486.25V448.63H1522.06V487.42C1522.06 491.08 1521.55 494.44 1520.53 497.5C1519.51 500.56 1517.95 503.2 1515.85 505.42C1513.75 507.58 1511.08 509.26 1507.84 510.46C1504.6 511.66 1500.76 512.26 1496.32 512.26ZM1578.13 498.94V511H1536.46V448.63H1550.5V498.94H1578.13ZM1652.27 498.94V511H1610.6V448.63H1624.64V498.94H1652.27ZM1672.24 479.77C1672.24 482.83 1672.6 485.59 1673.32 488.05C1674.1 490.51 1675.18 492.64 1676.56 494.44C1678 496.18 1679.74 497.53 1681.78 498.49C1683.82 499.45 1686.16 499.93 1688.8 499.93C1691.38 499.93 1693.69 499.45 1695.73 498.49C1697.83 497.53 1699.57 496.18 1700.95 494.44C1702.39 492.64 1703.47 490.51 1704.19 488.05C1704.97 485.59 1705.36 482.83 1705.36 479.77C1705.36 476.71 1704.97 473.95 1704.19 471.49C1703.47 468.97 1702.39 466.84 1700.95 465.1C1699.57 463.3 1697.83 461.92 1695.73 460.96C1693.69 460 1691.38 459.52 1688.8 459.52C1686.16 459.52 1683.82 460.03 1681.78 461.05C1679.74 462.01 1678 463.39 1676.56 465.19C1675.18 466.93 1674.1 469.06 1673.32 471.58C1672.6 474.04 1672.24 476.77 1672.24 479.77ZM1719.85 479.77C1719.85 485.11 1719.04 489.82 1717.42 493.9C1715.86 497.92 1713.7 501.31 1710.94 504.07C1708.18 506.77 1704.88 508.81 1701.04 510.19C1697.26 511.57 1693.18 512.26 1688.8 512.26C1684.54 512.26 1680.52 511.57 1676.74 510.19C1672.96 508.81 1669.66 506.77 1666.84 504.07C1664.02 501.31 1661.8 497.92 1660.18 493.9C1658.56 489.82 1657.75 485.11 1657.75 479.77C1657.75 474.43 1658.59 469.75 1660.27 465.73C1661.95 461.65 1664.2 458.23 1667.02 455.47C1669.9 452.71 1673.2 450.64 1676.92 449.26C1680.7 447.88 1684.66 447.19 1688.8 447.19C1693.06 447.19 1697.08 447.88 1700.86 449.26C1704.64 450.64 1707.94 452.71 1710.76 455.47C1713.58 458.23 1715.8 461.65 1717.42 465.73C1719.04 469.75 1719.85 474.43 1719.85 479.77ZM1774.31 511C1770.29 503.86 1765.94 496.81 1761.26 489.85C1756.58 482.89 1751.6 476.32 1746.32 470.14V511H1732.46V448.63H1743.89C1745.87 450.61 1748.06 453.04 1750.46 455.92C1752.86 458.8 1755.29 461.89 1757.75 465.19C1760.27 468.43 1762.76 471.82 1765.22 475.36C1767.68 478.84 1769.99 482.2 1772.15 485.44V448.63H1786.1V511H1774.31ZM1815.42 499.57C1816.08 499.63 1816.83 499.69 1817.67 499.75C1818.57 499.75 1819.62 499.75 1820.82 499.75C1827.84 499.75 1833.03 497.98 1836.39 494.44C1839.81 490.9 1841.52 486.01 1841.52 479.77C1841.52 473.23 1839.9 468.28 1836.66 464.92C1833.42 461.56 1828.29 459.88 1821.27 459.88C1820.31 459.88 1819.32 459.91 1818.3 459.97C1817.28 459.97 1816.32 460.03 1815.42 460.15V499.57ZM1856.01 479.77C1856.01 485.17 1855.17 489.88 1853.49 493.9C1851.81 497.92 1849.41 501.25 1846.29 503.89C1843.23 506.53 1839.48 508.51 1835.04 509.83C1830.6 511.15 1825.62 511.81 1820.1 511.81C1817.58 511.81 1814.64 511.69 1811.28 511.45C1807.92 511.27 1804.62 510.85 1801.38 510.19V449.44C1804.62 448.84 1807.98 448.45 1811.46 448.27C1815 448.03 1818.03 447.91 1820.55 447.91C1825.89 447.91 1830.72 448.51 1835.04 449.71C1839.42 450.91 1843.17 452.8 1846.29 455.38C1849.41 457.96 1851.81 461.26 1853.49 465.28C1855.17 469.3 1856.01 474.13 1856.01 479.77ZM1880.43 479.77C1880.43 482.83 1880.79 485.59 1881.51 488.05C1882.29 490.51 1883.37 492.64 1884.75 494.44C1886.19 496.18 1887.93 497.53 1889.97 498.49C1892.01 499.45 1894.35 499.93 1896.99 499.93C1899.57 499.93 1901.88 499.45 1903.92 498.49C1906.02 497.53 1907.76 496.18 1909.14 494.44C1910.58 492.64 1911.66 490.51 1912.38 488.05C1913.16 485.59 1913.55 482.83 1913.55 479.77C1913.55 476.71 1913.16 473.95 1912.38 471.49C1911.66 468.97 1910.58 466.84 1909.14 465.1C1907.76 463.3 1906.02 461.92 1903.92 460.96C1901.88 460 1899.57 459.52 1896.99 459.52C1894.35 459.52 1892.01 460.03 1889.97 461.05C1887.93 462.01 1886.19 463.39 1884.75 465.19C1883.37 466.93 1882.29 469.06 1881.51 471.58C1880.79 474.04 1880.43 476.77 1880.43 479.77ZM1928.04 479.77C1928.04 485.11 1927.23 489.82 1925.61 493.9C1924.05 497.92 1921.89 501.31 1919.13 504.07C1916.37 506.77 1913.07 508.81 1909.23 510.19C1905.45 511.57 1901.37 512.26 1896.99 512.26C1892.73 512.26 1888.71 511.57 1884.93 510.19C1881.15 508.81 1877.85 506.77 1875.03 504.07C1872.21 501.31 1869.99 497.92 1868.37 493.9C1866.75 489.82 1865.94 485.11 1865.94 479.77C1865.94 474.43 1866.78 469.75 1868.46 465.73C1870.14 461.65 1872.39 458.23 1875.21 455.47C1878.09 452.71 1881.39 450.64 1885.11 449.26C1888.89 447.88 1892.85 447.19 1896.99 447.19C1901.25 447.19 1905.27 447.88 1909.05 449.26C1912.83 450.64 1916.13 452.71 1918.95 455.47C1921.77 458.23 1923.99 461.65 1925.61 465.73C1927.23 469.75 1928.04 474.43 1928.04 479.77ZM1982.5 511C1978.48 503.86 1974.13 496.81 1969.45 489.85C1964.77 482.89 1959.79 476.32 1954.51 470.14V511H1940.65V448.63H1952.08C1954.06 450.61 1956.25 453.04 1958.65 455.92C1961.05 458.8 1963.48 461.89 1965.94 465.19C1968.46 468.43 1970.95 471.82 1973.41 475.36C1975.87 478.84 1978.18 482.2 1980.34 485.44V448.63H1994.29V511H1982.5Z" fill="white" fill-opacity="0.47"/>
</svg>
