<svg width="509" height="514" viewBox="0 0 509 514" fill="none" xmlns="http://www.w3.org/2000/svg">
<path d="M193.8 386C228.048 386 231.888 370 270.6 370C308.888 370 312.896 386 347.4 386C381.512 386 385.68 370 424.2 370C467.808 370 463.952 388.176 509 385.784V337.736C461.224 340.048 461.976 322 424.2 322C390.088 322 385.928 338 347.4 338C309.048 338 305.168 322 270.6 322C236.352 322 232.512 338 193.8 338C150.272 338 154.04 319.84 109 322.216V370.264C156.752 367.952 155.992 386 193.8 386Z" fill="#F5F5F5"/>
<path d="M193.8 450C228.048 450 231.888 434 270.6 434C308.888 434 312.896 450 347.4 450C381.512 450 385.68 434 424.2 434C467.808 434 463.952 452.176 509 449.784V401.736C461.224 404.048 461.976 386 424.2 386C390.088 386 385.928 402 347.4 402C309.048 402 305.168 386 270.6 386C236.352 386 232.512 402 193.8 402C150.272 402 154.04 383.832 109 386.208V434.256C156.752 431.952 155.992 450 193.8 450Z" fill="#F5F5F5"/>
<path d="M193.8 322C228.048 322 231.888 306 270.6 306C308.888 306 312.896 322 347.4 322C381.512 322 385.68 306 424.2 306C468.104 306 463.832 324.168 509 321.784V282C509 279.878 508.157 277.843 506.657 276.343C505.157 274.843 503.122 274 501 274C466.888 274 462.72 258 424.2 258C385.8 258 381.944 274 347.4 274C313.368 274 309.248 258 270.6 258C232.2 258 228.36 274 193.8 274C159.704 274 155.544 258 117 258C114.878 258 112.843 258.843 111.343 260.343C109.843 261.843 109 263.878 109 266V306.248C157.168 303.92 155.456 322 193.8 322Z" fill="#F5F5F5"/>
<path d="M424.2 450C390.088 450 385.928 466 347.4 466C309.048 466 305.168 450 270.6 450C236.352 450 232.512 466 193.8 466C150.312 466 154.024 447.84 109 450.232V490C109 492.122 109.843 494.157 111.343 495.657C112.843 497.157 114.878 498 117 498C151.032 498 155.152 514 193.8 514C232.2 514 236.04 498 270.6 498C304.688 498 308.856 514 347.4 514C385.8 514 389.664 498 424.2 498C458.32 498 462.48 514 501 514C503.122 514 505.157 513.157 506.657 511.657C508.157 510.157 509 508.122 509 506V465.72C461.224 468.04 461.984 450 424.2 450Z" fill="#F5F5F5"/>
<g clip-path="url(#clip0)">
<path d="M351.526 62.5184L362.341 12.9236C362.756 11.3943 364.147 10.3318 365.734 10.3318C367.319 10.3318 368.709 11.3943 369.128 12.9236L379.939 62.5184V62.5892L379.801 115.832H351.668L351.526 62.5184Z" fill="#F3AEBE"/>
<path d="M358.699 94.7305L348.046 52.1094C347.653 50.5447 346.246 49.4468 344.633 49.4468C343.02 49.4468 341.616 50.5447 341.223 52.1094L330.566 94.7305L344.633 115.832L358.699 94.7305Z" fill="#F3AEBE"/>
<path d="M400.899 94.7305L390.245 52.1094C389.852 50.5447 388.448 49.4468 386.835 49.4468C385.222 49.4468 383.815 50.5447 383.423 52.1094L372.766 94.7305L386.832 115.832L400.899 94.7305Z" fill="#F3AEBE"/>
<path d="M42.061 62.5184L52.8725 12.9236C53.291 11.3943 54.6819 10.3318 56.2659 10.3318C57.8532 10.3318 59.2441 11.3943 59.6594 12.9236L70.474 62.5184V62.5892L70.3324 108.797H42.1995" fill="#F3AEBE"/>
<path d="M49.234 94.7305L38.5771 52.1094C38.1875 50.5447 36.7805 49.4468 35.1675 49.4468C33.5545 49.4468 32.1475 50.5447 31.7547 52.1094L21.1011 94.7305L35.1675 115.832L49.234 94.7305Z" fill="#F3AEBE"/>
<path d="M91.4337 94.7305L80.78 52.1094C80.3872 50.5447 78.9803 49.4468 77.3672 49.4468C75.7542 49.4468 74.3472 50.5447 73.9577 52.1094L63.3008 94.7305L77.3672 115.832L91.4337 94.7305Z" fill="#F3AEBE"/>
<path d="M196.934 108.797H225.067C228.953 108.797 232.102 111.946 232.102 115.832V150.996C232.102 154.882 228.953 158.031 225.067 158.031H196.934C193.048 158.031 189.899 154.882 189.899 150.996V115.832C189.899 111.946 193.048 108.797 196.934 108.797Z" fill="#F3AEBE"/>
<path d="M196.934 108.797H203.965C207.851 108.797 211 111.946 211 115.832V150.996C211 154.882 207.851 158.031 203.965 158.031H196.934C193.048 158.031 189.899 154.882 189.899 150.996V115.832C189.899 111.946 193.048 108.797 196.934 108.797Z" fill="#FFF3F2"/>
<path d="M105.5 365.866L199.886 311.78C203.276 309.803 204.805 305.717 203.543 302.002H203.476C202.78 299.958 201.299 298.27 199.358 297.321C197.416 296.371 195.179 296.232 193.134 296.938L102.828 328.377" fill="#FFF3F2"/>
<path d="M319.172 328.377L316.5 365.866L296.245 354.259L222.114 311.78C218.724 309.803 217.194 305.717 218.456 302.002H218.524C218.64 301.596 218.833 301.213 219.088 300.878C220.884 297.282 225.079 295.592 228.865 296.938L319.172 328.377Z" fill="#F3AEBE"/>
<path d="M298.074 328.377L296.245 354.259L222.114 311.78C218.724 309.803 217.194 305.717 218.456 302.002H218.524C218.64 301.596 218.833 301.213 219.088 300.878L298.074 328.377Z" fill="#FFF3F2"/>
<path d="M21.1011 200.23H91.4333V277.598H21.1011V200.23Z" fill="#F3AEBE"/>
<path d="M21.1011 94.7305H91.4333V200.23H21.1011V94.7305Z" fill="#F3AEBE"/>
<path d="M21.1011 277.597H91.4333V340.898H21.1011V277.597Z" fill="#F3AEBE"/>
<path d="M105.5 333.863V411.23L63.3005 397.164L56.2656 401.878L42.1992 411.23L29.0471 405.957L7.03467 397.164V333.863C7.04433 329.984 10.1867 326.841 14.0663 326.832H98.465C102.338 326.864 105.464 329.993 105.5 333.863Z" fill="#F3AEBE"/>
<path d="M21.1012 263.531H91.4335C95.3163 263.531 98.4651 266.68 98.4651 270.563V284.629C98.4651 288.515 95.3163 291.664 91.4335 291.664H21.1012C17.2152 291.664 14.0664 288.515 14.0664 284.629V270.563C14.0664 266.68 17.2152 263.531 21.1012 263.531Z" fill="#D51F48" fill-opacity="0.3"/>
<path d="M21.1012 186.164H91.4335C95.3163 186.164 98.4651 189.313 98.4651 193.199V207.265C98.4651 211.148 95.3163 214.297 91.4335 214.297H21.1012C17.2152 214.297 14.0664 211.148 14.0664 207.265V193.199C14.0664 189.313 17.2152 186.164 21.1012 186.164Z" fill="#D51F48" fill-opacity="0.3"/>
<path d="M330.566 200.23H400.899V277.598H330.566V200.23Z" fill="#F3AEBE"/>
<path d="M330.566 94.7305H400.899V200.23H330.566V94.7305Z" fill="#F3AEBE"/>
<path d="M330.566 277.597H400.899V340.898H330.566V277.597Z" fill="#F3AEBE"/>
<path d="M21.1011 200.23H70.3321V277.598H21.1011V200.23Z" fill="#FFF3F2"/>
<path d="M21.1011 94.7305H70.3321V200.23H21.1011V94.7305Z" fill="#FFF3F2"/>
<path d="M21.1011 277.597H70.3321V340.898H21.1011V277.597Z" fill="#FFF3F2"/>
<path d="M330.566 200.23H379.801V277.598H330.566V200.23Z" fill="#FFF3F2"/>
<path d="M330.566 94.7305H379.801V200.23H330.566V94.7305Z" fill="#FFF3F2"/>
<path d="M330.566 277.597H379.801V340.898H330.566V277.597Z" fill="#FFF3F2"/>
<path d="M414.965 333.863V397.164L393.867 407.715L389.154 410.036L386.832 411.23L375.087 406.517L351.668 397.164L341.117 401.385L324.939 407.853L316.5 411.23V333.863C316.535 329.993 319.662 326.864 323.535 326.832H407.934C411.813 326.841 414.955 329.984 414.965 333.863Z" fill="#F3AEBE"/>
<path d="M330.566 263.531H400.899C404.785 263.531 407.933 266.68 407.933 270.563V284.629C407.933 288.515 404.785 291.664 400.899 291.664H330.566C326.683 291.664 323.535 288.515 323.535 284.629V270.563C323.535 266.68 326.683 263.531 330.566 263.531Z" fill="#D51F48" fill-opacity="0.3"/>
<path d="M330.566 186.164H400.899C404.785 186.164 407.933 189.313 407.933 193.199V207.265C407.933 211.148 404.785 214.297 400.899 214.297H330.566C326.683 214.297 323.535 211.148 323.535 207.265V193.199C323.535 189.313 326.683 186.164 330.566 186.164Z" fill="#D51F48" fill-opacity="0.3"/>
<path d="M84.3985 333.863V404.199L63.3005 397.164L56.2656 401.878L49.234 411.23L29.0471 405.957L7.03467 397.164V333.863C7.04433 329.984 10.1867 326.841 14.0663 326.832H77.3669C81.2369 326.864 84.3663 329.993 84.3985 333.863Z" fill="#FFF3F2"/>
<path d="M21.1012 263.531H70.3322C74.2183 263.531 77.3671 266.68 77.3671 270.563V284.629C77.3671 288.515 74.2183 291.664 70.3322 291.664H21.1012C17.2152 291.664 14.0664 288.515 14.0664 284.629V270.563C14.0664 266.68 17.2152 263.531 21.1012 263.531Z" fill="#D51F48" fill-opacity="0.1"/>
<path d="M21.1012 186.164H70.3322C74.2183 186.164 77.3671 189.313 77.3671 193.199V207.265C77.3671 211.148 74.2183 214.297 70.3322 214.297H21.1012C17.2152 214.297 14.0664 211.148 14.0664 207.265V193.199C14.0664 189.313 17.2152 186.164 21.1012 186.164Z" fill="#D51F48" fill-opacity="0.1"/>
<path d="M393.867 333.863V411.23L389.154 410.036L375.087 406.517L351.668 397.164L341.117 401.385L330.566 411.23L324.939 407.853L316.5 402.792V333.863C316.535 329.993 319.662 326.864 323.535 326.832H386.832C390.712 326.841 393.854 329.984 393.867 333.863Z" fill="#FFF3F2"/>
<path d="M330.566 263.531H379.8C383.683 263.531 386.832 266.68 386.832 270.563V284.629C386.832 288.515 383.683 291.664 379.8 291.664H330.566C326.683 291.664 323.535 288.515 323.535 284.629V270.563C323.535 266.68 326.683 263.531 330.566 263.531Z" fill="#D51F48" fill-opacity="0.1"/>
<path d="M330.566 186.164H379.8C383.683 186.164 386.832 189.313 386.832 193.199V207.265C386.832 211.148 383.683 214.297 379.8 214.297H330.566C326.683 214.297 323.535 211.148 323.535 207.265V193.199C323.535 189.313 326.683 186.164 330.566 186.164Z" fill="#D51F48" fill-opacity="0.1"/>
<path d="M28.1327 397.164V333.863C28.1456 329.984 31.2879 326.841 35.1676 326.832H42.1992V291.664C38.3196 291.651 35.1772 288.509 35.1676 284.629V270.563C35.1772 266.683 38.3196 263.541 42.1992 263.531V214.297C38.3196 214.287 35.1772 211.145 35.1676 207.265V193.199C35.1772 189.316 38.3196 186.174 42.1992 186.164V94.7304L42.4117 52.1093C43.2971 48.558 30.7632 48.558 31.6485 52.1093L35.1418 66.0759L35.1322 62.5183L38.7864 45.7441L49.234 12.9235C48.9443 12.1218 49.2147 11.2203 49.8973 10.7116C50.583 10.2029 51.5232 10.2029 52.2089 10.7116C52.8947 11.2203 53.1652 12.1218 52.8722 12.9235L31.6131 62.5183L31.626 66.0759L28.1327 52.1093C27.8108 51.2947 28.0716 50.3707 28.767 49.8395C29.4624 49.3114 30.4251 49.3114 31.1205 49.8395C31.816 50.3707 32.0768 51.2947 31.7548 52.1093L21.1011 94.7304V186.164C17.2215 186.174 14.0792 189.316 14.0663 193.199V207.265C14.0792 211.145 17.2215 214.287 21.1011 214.297V263.531C17.2215 263.541 14.0792 266.683 14.0663 270.563V284.629C14.0792 288.509 17.2215 291.651 21.1011 291.664V326.832H14.0663C10.1867 326.841 7.04433 329.984 7.03467 333.863V397.164L29.0471 405.957" fill="white"/>
<path d="M91.4338 270.563C87.5477 270.563 84.3989 267.414 84.3989 263.531V214.297C84.3989 210.414 87.5477 207.265 91.4338 207.265C95.3166 207.265 98.4654 210.414 98.4654 214.297V263.531C98.4654 267.414 95.3166 270.563 91.4338 270.563Z" fill="#D51F48"/>
<path d="M21.1012 270.563C17.2152 270.563 14.0664 267.414 14.0664 263.531V214.297C14.0664 210.414 17.2152 207.265 21.1012 207.265C24.9841 207.265 28.1329 210.414 28.1329 214.297V263.531C28.1329 267.414 24.9841 270.563 21.1012 270.563Z" fill="#D51F48"/>
<path d="M14.0664 94.7305H28.1329V186.164H14.0664V94.7305Z" fill="white"/>
<path d="M21.1012 127.387C24.8392 127.509 27.9783 124.592 28.1329 120.854V94.7305H14.0664V120.854C14.2209 124.592 17.3601 127.509 21.1012 127.387Z" fill="#D51F48"/>
<path d="M14.0664 186.164H28.1329V173.102C27.9783 169.364 24.8392 166.45 21.1012 166.573C17.3601 166.45 14.2209 169.364 14.0664 173.102V186.164Z" fill="#D51F48"/>
<path d="M28.1329 146.978C28.0943 145.224 27.3602 143.556 26.0949 142.342L25.0389 141.557C24.6429 141.309 24.2179 141.109 23.7736 140.967C23.3711 140.777 22.9461 140.649 22.5083 140.578C22.0414 140.504 21.5714 140.462 21.1013 140.449C19.2629 140.462 17.4921 141.135 16.1077 142.342C15.4767 142.954 14.9744 143.688 14.6299 144.493C13.5707 146.943 14.1598 149.789 16.1077 151.615C16.7903 152.21 17.5758 152.677 18.4258 152.986C19.279 153.321 20.1837 153.498 21.1013 153.508C22.9365 153.492 24.7073 152.822 26.0949 151.615C27.3602 150.401 28.0943 148.733 28.1329 146.978Z" fill="#D51F48"/>
<path d="M91.4335 193.199C87.5474 193.199 84.3987 190.047 84.3987 186.164V101.765H21.1012C17.2152 101.765 14.0664 98.6167 14.0664 94.7306C14.0664 90.8477 17.2152 87.699 21.1012 87.699H91.4335C95.3163 87.699 98.4651 90.8477 98.4651 94.7306V186.164C98.4651 190.047 95.3163 193.199 91.4335 193.199Z" fill="#D51F48"/>
<path d="M91.4335 333.863H21.1012C17.2152 333.863 14.0664 330.715 14.0664 326.832V291.664C14.0664 287.778 17.2152 284.629 21.1012 284.629C24.9841 284.629 28.1329 287.778 28.1329 291.664V319.797H84.3987V291.664C84.3987 287.778 87.5474 284.629 91.4335 284.629C95.3163 284.629 98.4651 287.778 98.4651 291.664V326.832C98.4651 330.715 95.3163 333.863 91.4335 333.863Z" fill="#D51F48"/>
<path d="M330.566 158.031H232.101C228.215 158.031 225.066 154.882 225.066 150.996C225.066 147.113 228.215 143.965 232.101 143.965H323.535V122.863H232.101C228.215 122.863 225.066 119.715 225.066 115.832C225.066 111.946 228.215 108.797 232.101 108.797H330.566C334.452 108.797 337.601 111.946 337.601 115.832V150.996C337.601 154.882 334.452 158.031 330.566 158.031Z" fill="#D51F48"/>
<path d="M189.899 158.031H91.4338C87.5477 158.031 84.3989 154.882 84.3989 150.996V115.832C84.3989 111.946 87.5477 108.797 91.4338 108.797H189.899C193.785 108.797 196.934 111.946 196.934 115.832C196.934 119.715 193.785 122.863 189.899 122.863H98.4654V143.965H189.899C193.785 143.965 196.934 147.113 196.934 150.996C196.934 154.882 193.785 158.031 189.899 158.031Z" fill="#D51F48"/>
<path d="M105.5 414.537C101.617 414.537 98.4652 411.388 98.4652 407.502V333.863H14.0665V397.164C14.0665 401.047 10.9177 404.199 7.03484 404.199C3.14877 404.199 0 401.047 0 397.164V333.863C0.00965886 326.098 6.30077 319.807 14.0665 319.797H98.4652C106.221 319.829 112.499 326.107 112.535 333.863V407.502C112.535 411.388 109.383 414.537 105.5 414.537Z" fill="#D51F48"/>
<path d="M91.4334 298.699H21.1011C13.3354 298.689 7.04111 292.395 7.03467 284.629V270.563C7.04111 262.8 13.3354 256.506 21.1011 256.496H91.4334C99.1991 256.506 105.49 262.8 105.5 270.563V284.629C105.49 292.395 99.1991 298.689 91.4334 298.699ZM21.1011 270.563V284.629H91.4398L91.4334 270.563H21.1011Z" fill="#D51F48"/>
<path d="M91.4334 221.332H21.1011C13.3354 221.322 7.04111 215.028 7.03467 207.265V193.199C7.04111 185.433 13.3354 179.139 21.1011 179.129H91.4334C99.1991 179.139 105.49 185.433 105.5 193.199V207.265C105.49 215.028 99.1991 221.322 91.4334 221.332ZM21.1011 193.199V207.265H91.4398L91.4334 193.199H21.1011Z" fill="#D51F48"/>
<path d="M21.1077 101.765C18.9409 101.765 16.8932 100.767 15.5571 99.0609C14.2242 97.3545 13.7509 95.1265 14.2789 93.0241L28.3453 36.7583C28.9249 34.2889 30.789 32.3249 33.2263 31.6134C35.6603 30.9051 38.2907 31.5651 40.1033 33.3359C41.9192 35.1066 42.6404 37.721 41.99 40.1711L27.9236 96.4369C27.1412 99.5663 24.3305 101.762 21.1077 101.765Z" fill="#D51F48"/>
<path d="M49.228 101.765C46.0019 101.762 43.1944 99.5665 42.4121 96.437L28.3456 40.1712C27.6727 37.7114 28.3842 35.081 30.2033 33.2941C32.0224 31.5072 34.6657 30.8472 37.1126 31.5652C39.5595 32.2832 41.4236 34.2697 41.9903 36.7584L56.0567 93.0242C56.5815 95.1266 56.1083 97.3546 54.7753 99.061C53.4392 100.767 51.3948 101.765 49.228 101.765Z" fill="#D51F48"/>
<path d="M63.3073 101.765C61.1405 101.765 59.0928 100.767 57.7599 99.0609C56.4238 97.3545 55.9505 95.1265 56.4785 93.0241L70.545 36.7583C71.0955 34.2567 72.9629 32.2541 75.4163 31.5297C77.8728 30.8021 80.5258 31.4685 82.3481 33.2651C84.1736 35.0616 84.8755 37.7049 84.1865 40.1711L70.1168 96.4369C69.3376 99.5664 66.5301 101.759 63.3073 101.765Z" fill="#D51F48"/>
<path d="M91.4273 101.765C88.2012 101.762 85.3937 99.5665 84.6146 96.437L70.5482 40.1712C69.872 37.7114 70.5836 35.081 72.4026 33.2941C74.2217 31.5072 76.865 30.8472 79.3119 31.5652C81.7588 32.2832 83.6262 34.2697 84.1896 36.7584L98.2561 93.0242C98.7809 95.1266 98.3108 97.3546 96.9747 99.061C95.6417 100.767 93.5941 101.765 91.4273 101.765Z" fill="#D51F48"/>
<path d="M70.4741 69.5886C66.9905 69.6047 64.0252 67.0613 63.5101 63.6163L56.2659 30.3674L48.9381 64.0155C48.1107 67.8114 44.3631 70.2197 40.5639 69.3923C36.768 68.5648 34.3598 64.8172 35.1872 61.0213L45.9986 11.4265C47.1191 6.66146 51.3722 3.29698 56.2659 3.29698C61.0406 3.25834 65.2293 6.46185 66.4463 11.0755L77.3479 61.0213C77.4509 61.5139 77.5057 62.0129 77.5089 62.5184C77.5121 66.4109 74.3666 69.5725 70.4741 69.5886Z" fill="#D51F48"/>
<path d="M56.266 158.031C52.3831 158.031 49.2344 154.882 49.2344 150.996V129.898C49.2344 126.012 52.3831 122.863 56.266 122.863C60.1521 122.863 63.3008 126.012 63.3008 129.898V150.996C63.3008 154.882 60.1521 158.031 56.266 158.031Z" fill="#D51F48"/>
<path d="M400.899 270.563C397.016 270.563 393.867 267.414 393.867 263.531V214.297C393.867 210.414 397.016 207.265 400.899 207.265C404.785 207.265 407.934 210.414 407.934 214.297V263.531C407.934 267.414 404.785 270.563 400.899 270.563Z" fill="#D51F48"/>
<path d="M330.566 270.563C326.683 270.563 323.535 267.414 323.535 263.531V214.297C323.535 210.414 326.683 207.265 330.566 207.265C334.452 207.265 337.601 210.414 337.601 214.297V263.531C337.601 267.414 334.452 270.563 330.566 270.563Z" fill="#D51F48"/>
<path d="M400.899 193.199C397.016 193.199 393.867 190.047 393.867 186.164V101.765H337.601V186.164C337.601 190.047 334.452 193.199 330.566 193.199C326.683 193.199 323.535 190.047 323.535 186.164V94.7306C323.535 90.8477 326.683 87.699 330.566 87.699H400.899C404.785 87.699 407.933 90.8477 407.933 94.7306V186.164C407.933 190.047 404.785 193.199 400.899 193.199Z" fill="#D51F48"/>
<path d="M400.899 333.863H330.566C326.683 333.863 323.535 330.715 323.535 326.832V291.664C323.535 287.778 326.683 284.629 330.566 284.629C334.452 284.629 337.601 287.778 337.601 291.664V319.797H393.867V291.664C393.867 287.778 397.016 284.629 400.899 284.629C404.785 284.629 407.933 287.778 407.933 291.664V326.832C407.933 330.715 404.785 333.863 400.899 333.863Z" fill="#D51F48"/>
<path d="M316.5 414.324C312.617 414.324 309.465 411.176 309.465 407.293V333.863C309.501 326.111 315.779 319.832 323.535 319.797H407.934C415.699 319.807 421.99 326.098 422 333.863V397.164C422 401.047 418.851 404.199 414.965 404.199C411.082 404.199 407.934 401.047 407.934 397.164V333.863H323.535V407.293C323.535 411.176 320.383 414.324 316.5 414.324Z" fill="#D51F48"/>
<path d="M400.899 298.699H330.566C322.801 298.689 316.51 292.395 316.5 284.629V270.563C316.51 262.8 322.801 256.506 330.566 256.496H400.899C408.664 256.506 414.959 262.8 414.965 270.563V284.629C414.959 292.395 408.664 298.689 400.899 298.699ZM330.566 270.563V284.629H400.908L400.899 270.563H330.566Z" fill="#D51F48"/>
<path d="M400.899 221.332H330.566C322.801 221.322 316.51 215.028 316.5 207.265V193.199C316.51 185.433 322.801 179.139 330.566 179.129H400.899C408.664 179.139 414.959 185.433 414.965 193.199V207.265C414.959 215.028 408.664 221.322 400.899 221.332ZM330.566 193.199V207.265H400.908L400.899 193.199H330.566Z" fill="#D51F48"/>
<path d="M330.573 101.765C328.406 101.765 326.361 100.767 325.025 99.0609C323.692 97.3513 323.219 95.1265 323.747 93.0241L337.814 36.7583C338.364 34.2567 340.232 32.2541 342.685 31.5297C345.141 30.8021 347.794 31.4685 349.617 33.2651C351.442 35.0616 352.144 37.7049 351.452 40.1711L337.385 96.4369C336.606 99.5664 333.799 101.762 330.573 101.765Z" fill="#D51F48"/>
<path d="M358.693 101.765C355.47 101.762 352.659 99.5665 351.88 96.437L337.813 40.1712C337.141 37.7114 337.849 35.081 339.668 33.2941C341.49 31.5072 344.133 30.8472 346.58 31.5652C349.024 32.2832 350.891 34.2697 351.455 36.7584L365.521 93.0242C366.049 95.1266 365.576 97.3546 364.24 99.061C362.907 100.767 360.859 101.765 358.693 101.765Z" fill="#D51F48"/>
<path d="M372.772 101.765C370.605 101.765 368.561 100.767 367.228 99.0609C365.892 97.3513 365.422 95.1265 365.946 93.0241L380.013 36.7583C380.563 34.2567 382.431 32.2541 384.884 31.5297C387.341 30.8021 389.994 31.4685 391.819 33.2651C393.641 35.0616 394.343 37.7049 393.654 40.1711L379.588 96.4369C378.805 99.5664 375.998 101.762 372.772 101.765Z" fill="#D51F48"/>
<path d="M400.893 101.765C397.67 101.762 394.859 99.5665 394.08 96.437L380.014 40.1712C379.341 37.7114 380.049 35.081 381.871 33.2941C383.69 31.5072 386.334 30.8472 388.781 31.5652C391.227 32.2832 393.092 34.2697 393.655 36.7584L407.721 93.0242C408.249 95.1266 407.776 97.3546 406.443 99.061C405.107 100.767 403.059 101.765 400.893 101.765Z" fill="#D51F48"/>
<path d="M379.939 69.5886C376.459 69.6047 373.497 67.058 372.985 63.6163L365.734 30.3674L358.403 64.0155C357.579 67.8114 353.828 70.2197 350.032 69.3923C346.233 68.5648 343.828 64.8172 344.652 61.0213L355.463 11.4265C356.587 6.66146 360.837 3.29698 365.734 3.29698C370.505 3.25834 374.697 6.46185 375.911 11.0755L386.813 61.0213C386.919 61.5139 386.974 62.0129 386.974 62.5184C386.977 66.4109 383.831 69.5725 379.939 69.5886Z" fill="#D51F48"/>
<path d="M365.734 158.031C361.848 158.031 358.699 154.882 358.699 150.996V129.898C358.699 126.012 361.848 122.863 365.734 122.863C369.617 122.863 372.766 126.012 372.766 129.898V150.996C372.766 154.882 369.617 158.031 365.734 158.031Z" fill="#D51F48"/>
<path d="M225.067 165.063H196.934C189.168 165.056 182.877 158.762 182.867 150.996V115.832C182.877 108.066 189.168 101.772 196.934 101.765H225.067C232.832 101.772 239.123 108.066 239.133 115.832V150.996C239.123 158.762 232.832 165.056 225.067 165.063ZM196.934 115.832V150.996H225.073L225.067 115.832H196.934Z" fill="#D51F48"/>
<path d="M28.1327 376.063C24.2498 376.063 21.1011 372.914 21.1011 369.031V354.965C21.1011 351.079 24.2498 347.93 28.1327 347.93C32.0188 347.93 35.1675 351.079 35.1675 354.965V369.031C35.1675 372.914 32.0188 376.063 28.1327 376.063Z" fill="#D51F48"/>
<path d="M56.266 376.063C52.3831 376.063 49.2344 372.914 49.2344 369.031V354.965C49.2344 351.079 52.3831 347.93 56.266 347.93C60.1521 347.93 63.3008 351.079 63.3008 354.965V369.031C63.3008 372.914 60.1521 376.063 56.266 376.063Z" fill="#D51F48"/>
<path d="M84.3988 376.063C80.516 376.063 77.3672 372.914 77.3672 369.031V354.965C77.3672 351.079 80.516 347.93 84.3988 347.93C88.2849 347.93 91.4336 351.079 91.4336 354.965V369.031C91.4336 372.914 88.2849 376.063 84.3988 376.063Z" fill="#D51F48"/>
<path d="M337.601 376.063C333.715 376.063 330.566 372.914 330.566 369.031V354.965C330.566 351.079 333.715 347.93 337.601 347.93C341.484 347.93 344.633 351.079 344.633 354.965V369.031C344.633 372.914 341.484 376.063 337.601 376.063Z" fill="#D51F48"/>
<path d="M365.734 376.063C361.848 376.063 358.699 372.914 358.699 369.031V354.965C358.699 351.079 361.848 347.93 365.734 347.93C369.617 347.93 372.766 351.079 372.766 354.965V369.031C372.766 372.914 369.617 376.063 365.734 376.063Z" fill="#D51F48"/>
<path d="M393.867 376.063C389.981 376.063 386.832 372.914 386.832 369.031V354.965C386.832 351.079 389.981 347.93 393.867 347.93C397.75 347.93 400.898 351.079 400.898 354.965V369.031C400.898 372.914 397.75 376.063 393.867 376.063Z" fill="#D51F48"/>
<path d="M105.506 372.898C102.319 372.901 99.5242 370.76 98.7032 367.679C97.8822 364.598 99.2377 361.349 102.003 359.762L196.392 305.676C196.747 305.454 196.959 305.061 196.953 304.639C196.904 304.526 196.866 304.41 196.824 304.291C196.727 304.002 196.518 303.76 196.241 303.625C195.996 303.506 195.713 303.486 195.456 303.577L105.142 335.022C101.475 336.301 97.4637 334.362 96.1855 330.695C94.9073 327.025 96.8455 323.017 100.513 321.738L190.823 290.299C198.289 287.704 206.499 291.294 209.664 298.538C209.886 298.921 210.069 299.327 210.214 299.745C212.526 306.626 209.693 314.188 203.427 317.855L108.996 371.967C107.934 372.579 106.733 372.901 105.506 372.898Z" fill="#D51F48"/>
<path d="M316.494 372.898C315.267 372.901 314.066 372.579 313.003 371.968L218.618 317.881C212.33 314.221 209.477 306.645 211.789 299.745C211.937 299.317 212.124 298.902 212.352 298.506C215.53 291.278 223.727 287.707 231.187 290.302L321.487 321.738C325.154 323.02 327.092 327.028 325.814 330.695C324.536 334.366 320.524 336.301 316.857 335.023L226.547 303.586C226.29 303.493 226.007 303.509 225.759 303.631C225.482 303.763 225.269 304.005 225.176 304.295C225.134 304.414 225.092 304.53 225.044 304.642C225.044 305.08 225.273 305.483 225.649 305.705L319.993 359.765C322.759 361.352 324.111 364.598 323.29 367.679C322.469 370.757 319.681 372.898 316.494 372.898Z" fill="#D51F48"/>
<path d="M182.861 158.031C181.215 158.031 179.622 157.455 178.359 156.399L140.668 124.985L102.972 156.399C99.9879 158.887 95.5513 158.485 93.0657 155.504C90.577 152.519 90.9762 148.082 93.9608 145.594L136.16 110.429C138.771 108.253 142.564 108.253 145.172 110.429L187.371 145.594C189.647 147.493 190.491 150.613 189.48 153.395C188.469 156.18 185.823 158.034 182.861 158.031Z" fill="#D51F48"/>
<path d="M323.525 158.031C321.88 158.031 320.286 157.455 319.024 156.399L281.332 124.985L243.641 156.399C241.709 158.009 239.065 158.466 236.709 157.6C234.349 156.734 232.633 154.673 232.201 152.197C231.773 149.721 232.697 147.204 234.629 145.594L276.828 110.429C279.436 108.253 283.229 108.253 285.84 110.429L328.039 145.594C330.316 147.493 331.159 150.613 330.148 153.395C329.137 156.18 326.491 158.034 323.525 158.031Z" fill="#D51F48"/>
<path d="M385.879 418.265C378.403 418.201 371.317 414.917 366.436 409.257C362.901 405.838 361.011 404.199 356.758 404.199C352.508 404.199 350.625 405.838 347.096 409.257C342.25 414.968 335.142 418.265 327.649 418.265C320.161 418.265 313.049 414.968 308.206 409.257C304.665 405.838 302.772 404.199 298.518 404.199C294.265 404.199 292.379 405.838 288.84 409.257C283.998 414.968 276.886 418.265 269.397 418.265C261.905 418.265 254.793 414.968 249.951 409.257C246.416 405.838 244.526 404.199 240.273 404.199C236.023 404.199 234.126 405.838 230.582 409.26C225.733 414.975 218.621 418.265 211.126 418.265C203.634 418.265 196.521 414.972 191.673 409.257C188.128 405.838 186.241 404.199 181.988 404.199C177.732 404.199 175.842 405.838 172.297 409.26C167.448 414.975 160.336 418.265 152.844 418.265C145.352 418.265 138.24 414.972 133.391 409.257C129.856 405.838 127.96 404.199 123.71 404.199C119.457 404.199 117.561 405.838 114.016 409.26C109.167 414.975 102.055 418.265 94.5598 418.265C87.0678 418.265 79.9557 414.972 75.1069 409.257C71.5621 405.838 69.6722 404.199 65.4224 404.199C61.1499 404.199 59.2536 405.841 55.7088 409.26C50.8086 414.92 43.7094 418.201 36.2206 418.265C28.735 418.201 21.639 414.92 16.7387 409.26C13.2004 405.841 11.304 404.199 7.03484 404.199C3.14877 404.199 0 401.047 0 397.164C0 393.278 3.14877 390.129 7.03484 390.129C14.5204 390.194 21.6164 393.474 26.5167 399.134C30.0582 402.554 31.9546 404.199 36.227 404.199C40.4994 404.199 42.4022 402.554 45.9534 399.134C50.8054 393.423 57.9207 390.129 65.4159 390.129C72.9112 390.129 80.0265 393.423 84.8784 399.134C88.4232 402.554 90.3099 404.199 94.5694 404.199C98.829 404.199 100.709 402.557 104.254 399.138C109.1 393.426 116.215 390.129 123.71 390.129C131.202 390.129 138.317 393.426 143.163 399.138C146.701 402.557 148.591 404.199 152.841 404.199C157.094 404.199 158.987 402.557 162.532 399.134C167.381 393.42 174.496 390.129 181.988 390.129C189.48 390.129 196.595 393.42 201.441 399.134C204.986 402.554 206.876 404.199 211.135 404.199C215.392 404.199 217.275 402.557 220.82 399.138C225.665 393.426 232.777 390.129 240.269 390.129C247.761 390.129 254.877 393.426 259.722 399.138C263.261 402.557 265.154 404.199 269.407 404.199C273.657 404.199 275.54 402.557 279.069 399.141C283.914 393.426 291.03 390.132 298.522 390.132C306.014 390.132 313.129 393.426 317.975 399.141C321.51 402.56 323.4 404.199 327.653 404.199C331.903 404.199 333.783 402.56 337.315 399.141C342.157 393.429 349.269 390.132 356.761 390.132C364.25 390.132 371.362 393.429 376.204 399.141C379.743 402.56 381.629 404.199 385.882 404.199C390.119 404.199 392.003 402.56 395.532 399.144C400.413 393.484 407.492 390.2 414.965 390.129C418.851 390.129 422 393.278 422 397.164C422 401.047 418.851 404.199 414.965 404.199C410.722 404.199 408.841 405.838 405.31 409.254C400.432 414.914 393.352 418.198 385.879 418.265Z" fill="#D51F48"/>
</g>
<defs>
<clipPath id="clip0">
<rect width="422" height="422" fill="white"/>
</clipPath>
</defs>
</svg>
